<?xml version="1.0" encoding="UTF-8"?><svg xmlns="http://www.w3.org/2000/svg" xmlns:xlink="http://www.w3.org/1999/xlink" viewBox="0 0 819.57 827.23"><defs><style>.cls-1{fill:url(#Dégradé_sans_nom_12-15);}.cls-2{fill:#c51116;}.cls-3{fill:url(#Dégradé_sans_nom_12-93);}.cls-4{fill:url(#Dégradé_sans_nom_12-22);}.cls-5,.cls-6,.cls-7,.cls-8{fill:#fff;}.cls-9{fill:url(#Dégradé_sans_nom_12-95);}.cls-10{fill:url(#Dégradé_sans_nom_12-47);}.cls-11{fill:url(#Dégradé_sans_nom_12-25);}.cls-12{fill:url(#Dégradé_sans_nom_12-68);}.cls-13{fill:url(#Dégradé_sans_nom_12-65);}.cls-14{fill:url(#Dégradé_sans_nom_12-91);}.cls-15{fill:url(#Dégradé_sans_nom_12-6);}.cls-16{fill:url(#Dégradé_sans_nom_12-46);}.cls-17{fill:url(#Dégradé_sans_nom_12-9);}.cls-18{fill:url(#Dégradé_sans_nom_12-18);}.cls-19{opacity:.5;}.cls-20{fill:url(#Dégradé_sans_nom_12-58);}.cls-21{fill:url(#Dégradé_sans_nom_12-2);}.cls-22,.cls-23{fill:#edf1ca;}.cls-22,.cls-23,.cls-6,.cls-24{mix-blend-mode:overlay;}.cls-22,.cls-25{opacity:.62;}.cls-26{fill:url(#Dégradé_sans_nom_12-17);}.cls-27{fill:#181849;}.cls-28{fill:url(#Dégradé_sans_nom_12-101);}.cls-29{fill:url(#Dégradé_sans_nom_12-79);}.cls-30{fill:url(#Dégradé_sans_nom_12-8);}.cls-31{fill:url(#Dégradé_sans_nom_12);}.cls-32{fill:url(#Dégradé_sans_nom_12-49);}.cls-33{fill:url(#Dégradé_sans_nom_12-63);}.cls-34{fill:url(#Dégradé_sans_nom_12-96);}.cls-35{fill:url(#Dégradé_sans_nom_12-10);}.cls-36{fill:url(#Dégradé_sans_nom_12-20);}.cls-37{fill:url(#Dégradé_sans_nom_12-26);}.cls-38{fill:url(#Dégradé_sans_nom_12-90);}.cls-39{isolation:isolate;}.cls-25{fill:url(#Dégradé_sans_nom_95);mix-blend-mode:hard-light;}.cls-40{fill:url(#Dégradé_sans_nom_12-57);}.cls-41{fill:url(#Dégradé_sans_nom_12-24);}.cls-42{fill:url(#Dégradé_sans_nom_12-55);}.cls-43{fill:url(#Dégradé_sans_nom_12-23);}.cls-44{fill:url(#Dégradé_sans_nom_12-62);}.cls-45{fill:url(#Dégradé_sans_nom_12-56);}.cls-46{fill:url(#Dégradé_sans_nom_12-81);}.cls-47{fill:url(#Dégradé_sans_nom_12-76);}.cls-48{fill:url(#Dégradé_sans_nom_12-73);}.cls-49{fill:url(#Dégradé_sans_nom_12-70);}.cls-50{fill:#282465;}.cls-51{fill:url(#Dégradé_sans_nom_12-94);}.cls-52{fill:url(#Dégradé_sans_nom_12-60);}.cls-53{fill:url(#Dégradé_sans_nom_12-86);}.cls-54{fill:url(#Dégradé_sans_nom_12-5);}.cls-55{fill:url(#Dégradé_sans_nom_12-43);}.cls-56{fill:url(#Dégradé_sans_nom_12-28);}.cls-57{fill:url(#Dégradé_sans_nom_12-88);}.cls-58{fill:url(#Dégradé_sans_nom_12-16);}.cls-59{fill:url(#Dégradé_sans_nom_12-87);}.cls-60{fill:url(#Dégradé_sans_nom_12-3);}.cls-24{fill:url(#Dégradé_sans_nom_2);}.cls-61{fill:url(#Dégradé_sans_nom_12-64);}.cls-62{fill:#eaea92;}.cls-63{fill:url(#Dégradé_sans_nom_12-98);}.cls-64{fill:url(#Dégradé_sans_nom_12-80);}.cls-65{fill:url(#Dégradé_sans_nom_12-33);}.cls-66{fill:url(#Dégradé_sans_nom_12-52);}.cls-67{fill:url(#Dégradé_sans_nom_12-89);}.cls-68{fill:url(#Dégradé_sans_nom_12-92);}.cls-69{fill:url(#Dégradé_sans_nom_12-61);}.cls-70{fill:url(#Dégradé_sans_nom_12-102);}.cls-71{fill:url(#Dégradé_sans_nom_12-11);}.cls-72{fill:url(#Dégradé_sans_nom_12-100);}.cls-73{fill:url(#Dégradé_sans_nom_12-35);}.cls-74{fill:url(#Dégradé_sans_nom_12-13);}.cls-75{fill:url(#Dégradé_sans_nom_12-66);}.cls-7{filter:url(#drop-shadow-1);}.cls-76{fill:url(#Dégradé_sans_nom_12-69);}.cls-77{fill:url(#Dégradé_sans_nom_12-21);}.cls-78{fill:url(#Dégradé_sans_nom_12-84);}.cls-79{fill:url(#Dégradé_sans_nom_12-30);}.cls-80{fill:url(#Dégradé_sans_nom_12-41);}.cls-81{fill:#d91118;}.cls-82{fill:url(#Dégradé_sans_nom_12-54);}.cls-83{fill:#191732;}.cls-84{fill:url(#Dégradé_sans_nom_12-29);}.cls-85{fill:url(#Dégradé_sans_nom_12-75);}.cls-86{fill:url(#Dégradé_sans_nom_12-40);}.cls-87{fill:url(#Dégradé_sans_nom_12-45);}.cls-88{fill:url(#Dégradé_sans_nom_12-99);}.cls-89{fill:url(#Dégradé_sans_nom_12-85);}.cls-90{fill:url(#Dégradé_sans_nom_12-7);}.cls-91{fill:url(#Dégradé_sans_nom_12-82);}.cls-92{fill:url(#Dégradé_sans_nom_12-36);}.cls-93{fill:url(#Dégradé_sans_nom_12-37);}.cls-94{fill:url(#Dégradé_sans_nom_17);mix-blend-mode:multiply;opacity:.61;}.cls-95{fill:url(#Dégradé_sans_nom_12-34);}.cls-96{fill:url(#Dégradé_sans_nom_12-39);}.cls-97{fill:url(#Dégradé_sans_nom_12-44);}.cls-98{fill:url(#Dégradé_sans_nom_12-27);}.cls-99{fill:url(#Dégradé_sans_nom_12-71);}.cls-100{fill:url(#Dégradé_sans_nom_12-77);}.cls-101{fill:url(#Dégradé_sans_nom_12-83);}.cls-102{fill:#b4c4ff;}.cls-103{fill:#5d69ce;}.cls-104{fill:url(#Dégradé_sans_nom_12-97);}.cls-105{fill:url(#Dégradé_sans_nom_12-67);}.cls-8{opacity:.85;}.cls-106{fill:url(#Dégradé_sans_nom_12-51);}.cls-107{fill:url(#Dégradé_sans_nom_12-48);}.cls-108{fill:url(#Dégradé_sans_nom_12-12);}.cls-109{fill:url(#Dégradé_sans_nom_12-31);}.cls-110{fill:url(#Dégradé_sans_nom_12-72);}.cls-111{fill:url(#Dégradé_sans_nom_12-38);}.cls-112{fill:url(#Dégradé_sans_nom_12-53);}.cls-113{fill:url(#Dégradé_sans_nom_12-32);}.cls-114{fill:url(#Dégradé_sans_nom_12-74);}.cls-115{fill:url(#Dégradé_sans_nom_12-42);}.cls-116{fill:url(#Dégradé_sans_nom_12-59);}.cls-117{fill:url(#Dégradé_sans_nom_12-50);}.cls-118{fill:url(#Dégradé_sans_nom_12-19);}.cls-119{fill:url(#Dégradé_sans_nom_12-78);}.cls-120{fill:url(#Dégradé_sans_nom_12-4);}.cls-121{fill:url(#Dégradé_sans_nom_12-14);}</style><filter id="drop-shadow-1" filterUnits="userSpaceOnUse"><feOffset dx="11.34" dy="14.17"/><feGaussianBlur result="blur" stdDeviation="22.68"/><feFlood flood-color="#000" flood-opacity=".3"/><feComposite in2="blur" operator="in"/><feComposite in="SourceGraphic"/></filter><radialGradient id="Dégradé_sans_nom_2" cx="-7528.8" cy="-389.14" fx="-7528.8" fy="-389.14" r="570" gradientTransform="translate(3020.58 481.16) scale(.35)" gradientUnits="userSpaceOnUse"><stop offset="0" stop-color="#fff"/><stop offset=".11" stop-color="#fff" stop-opacity=".98"/><stop offset=".23" stop-color="#fff" stop-opacity=".93"/><stop offset=".36" stop-color="#fff" stop-opacity=".84"/><stop offset=".5" stop-color="#fff" stop-opacity=".72"/><stop offset=".64" stop-color="#fff" stop-opacity=".56"/><stop offset=".78" stop-color="#fff" stop-opacity=".36"/><stop offset=".92" stop-color="#fff" stop-opacity=".14"/><stop offset="1" stop-color="#fff" stop-opacity="0"/></radialGradient><radialGradient id="Dégradé_sans_nom_12" cx="13531.72" cy="4132.53" fx="13531.72" fy="4132.53" r="1.2" gradientTransform="translate(6936.27 12998.36) rotate(-135)" gradientUnits="userSpaceOnUse"><stop offset="0" stop-color="#fff"/><stop offset="1" stop-color="#fff" stop-opacity="0"/></radialGradient><radialGradient id="Dégradé_sans_nom_12-2" cx="13496.94" cy="4179.97" fx="13496.94" fy="4179.97" r="1.2" xlink:href="#Dégradé_sans_nom_12"/><radialGradient id="Dégradé_sans_nom_12-3" cx="13490.09" cy="4217.91" fx="13490.09" fy="4217.91" r="1.2" xlink:href="#Dégradé_sans_nom_12"/><radialGradient id="Dégradé_sans_nom_12-4" cx="13418.41" cy="4250.06" fx="13418.41" fy="4250.06" r="1.2" xlink:href="#Dégradé_sans_nom_12"/><radialGradient id="Dégradé_sans_nom_12-5" cx="13428.42" cy="4264.82" fx="13428.42" fy="4264.82" r="1.2" xlink:href="#Dégradé_sans_nom_12"/><radialGradient id="Dégradé_sans_nom_12-6" cx="13551.22" cy="4269.9" fx="13551.22" fy="4269.9" r="1.2" xlink:href="#Dégradé_sans_nom_12"/><radialGradient id="Dégradé_sans_nom_12-7" cx="13549.12" cy="4300.71" fx="13549.12" fy="4300.71" r="1.2" xlink:href="#Dégradé_sans_nom_12"/><radialGradient id="Dégradé_sans_nom_12-8" cx="13598.14" cy="4282.5" fx="13598.14" fy="4282.5" r="1.2" xlink:href="#Dégradé_sans_nom_12"/><radialGradient id="Dégradé_sans_nom_12-9" cx="13600.24" cy="4298.61" fx="13600.24" fy="4298.61" r="1.2" xlink:href="#Dégradé_sans_nom_12"/><radialGradient id="Dégradé_sans_nom_12-10" cx="13660.46" cy="4323.82" fx="13660.46" fy="4323.82" r="1.2" xlink:href="#Dégradé_sans_nom_12"/><radialGradient id="Dégradé_sans_nom_12-11" cx="13677.97" cy="4127.04" fx="13677.97" fy="4127.04" r="1.2" xlink:href="#Dégradé_sans_nom_12"/><radialGradient id="Dégradé_sans_nom_12-12" cx="13700.38" cy="4269.2" fx="13700.38" fy="4269.2" r="1.2" xlink:href="#Dégradé_sans_nom_12"/><radialGradient id="Dégradé_sans_nom_12-13" cx="13613.56" cy="4278.72" fx="13613.56" fy="4278.72" r="2.4" xlink:href="#Dégradé_sans_nom_12"/><radialGradient id="Dégradé_sans_nom_12-14" cx="13588.62" cy="4295.73" fx="13588.62" fy="4295.73" r="2.4" xlink:href="#Dégradé_sans_nom_12"/><radialGradient id="Dégradé_sans_nom_12-15" cx="13695.19" cy="4212.97" fx="13695.19" fy="4212.97" r="2.4" xlink:href="#Dégradé_sans_nom_12"/><radialGradient id="Dégradé_sans_nom_12-16" cx="13691.22" cy="4266.82" fx="13691.22" fy="4266.82" r="2.4" xlink:href="#Dégradé_sans_nom_12"/><radialGradient id="Dégradé_sans_nom_12-17" cx="13666.84" cy="4316.13" fx="13666.84" fy="4316.13" r="2.4" xlink:href="#Dégradé_sans_nom_12"/><radialGradient id="Dégradé_sans_nom_12-18" cx="13680.45" cy="4333.7" fx="13680.45" fy="4333.7" r="2.4" xlink:href="#Dégradé_sans_nom_12"/><radialGradient id="Dégradé_sans_nom_12-19" cx="13484.89" cy="4209" fx="13484.89" fy="4209" r="2.4" xlink:href="#Dégradé_sans_nom_12"/><radialGradient id="Dégradé_sans_nom_12-20" cx="13538.17" cy="4253.78" fx="13538.17" fy="4253.78" r="2.4" xlink:href="#Dégradé_sans_nom_12"/><radialGradient id="Dégradé_sans_nom_12-21" cx="13535.34" cy="4273.62" fx="13535.34" fy="4273.62" r="2.4" xlink:href="#Dégradé_sans_nom_12"/><radialGradient id="Dégradé_sans_nom_12-22" cx="13490.56" cy="4172.15" fx="13490.56" fy="4172.15" r="2.4" xlink:href="#Dégradé_sans_nom_12"/><radialGradient id="Dégradé_sans_nom_12-23" cx="13793.14" cy="4241.2" fx="13793.14" fy="4241.2" r="1.2" xlink:href="#Dégradé_sans_nom_12"/><radialGradient id="Dégradé_sans_nom_12-24" cx="13786.29" cy="4279.14" fx="13786.29" fy="4279.14" r="1.2" xlink:href="#Dégradé_sans_nom_12"/><radialGradient id="Dégradé_sans_nom_12-25" cx="13714.61" cy="4311.29" fx="13714.61" fy="4311.29" r="1.2" xlink:href="#Dégradé_sans_nom_12"/><radialGradient id="Dégradé_sans_nom_12-26" cx="13724.62" cy="4326.05" fx="13724.62" fy="4326.05" r="1.2" xlink:href="#Dégradé_sans_nom_12"/><radialGradient id="Dégradé_sans_nom_12-27" cx="13578.53" cy="4125.95" fx="13578.53" fy="4125.95" r="1.2" xlink:href="#Dégradé_sans_nom_12"/><radialGradient id="Dégradé_sans_nom_12-28" cx="13573.62" cy="4146.26" fx="13573.62" fy="4146.26" r="1.2" xlink:href="#Dégradé_sans_nom_12"/><radialGradient id="Dégradé_sans_nom_12-29" cx="13594.63" cy="4135.75" fx="13594.63" fy="4135.75" r="1.2" xlink:href="#Dégradé_sans_nom_12"/><radialGradient id="Dégradé_sans_nom_12-30" cx="13586.23" cy="4198.08" fx="13586.23" fy="4198.08" r="1.2" xlink:href="#Dégradé_sans_nom_12"/><radialGradient id="Dégradé_sans_nom_12-31" cx="13638.75" cy="4266" fx="13638.75" fy="4266" r="1.2" xlink:href="#Dégradé_sans_nom_12"/><radialGradient id="Dégradé_sans_nom_12-32" cx="13660.46" cy="4263.2" fx="13660.46" fy="4263.2" r="1.2" xlink:href="#Dégradé_sans_nom_12"/><radialGradient id="Dégradé_sans_nom_12-33" cx="13655.55" cy="4280.01" fx="13655.55" fy="4280.01" r="1.2" xlink:href="#Dégradé_sans_nom_12"/><radialGradient id="Dégradé_sans_nom_12-34" cx="13781.09" cy="4270.23" fx="13781.09" fy="4270.23" r="2.4" xlink:href="#Dégradé_sans_nom_12"/><radialGradient id="Dégradé_sans_nom_12-35" cx="13598" cy="4209.58" fx="13598" fy="4209.58" r="2.4" xlink:href="#Dégradé_sans_nom_12"/><radialGradient id="Dégradé_sans_nom_12-36" cx="13592.9" cy="4123.42" fx="13592.9" fy="4123.42" r="2.4" xlink:href="#Dégradé_sans_nom_12"/><radialGradient id="Dégradé_sans_nom_12-37" cx="13667.72" cy="4270.79" fx="13667.72" fy="4270.79" r="2.4" xlink:href="#Dégradé_sans_nom_12"/><radialGradient id="Dégradé_sans_nom_12-38" cx="13786.76" cy="4233.38" fx="13786.76" fy="4233.38" r="2.4" xlink:href="#Dégradé_sans_nom_12"/><radialGradient id="Dégradé_sans_nom_12-39" cx="13796.32" cy="4307.78" fx="13796.32" fy="4307.78" r="1.2" xlink:href="#Dégradé_sans_nom_12"/><radialGradient id="Dégradé_sans_nom_12-40" cx="13759.03" cy="4297.98" fx="13759.03" fy="4297.98" r="1.2" xlink:href="#Dégradé_sans_nom_12"/><radialGradient id="Dégradé_sans_nom_12-41" cx="13732.6" cy="4224" fx="13732.6" fy="4224" r="1.2" xlink:href="#Dégradé_sans_nom_12"/><radialGradient id="Dégradé_sans_nom_12-42" cx="13717.1" cy="4232.83" fx="13717.1" fy="4232.83" r="1.2" xlink:href="#Dégradé_sans_nom_12"/><radialGradient id="Dégradé_sans_nom_12-43" cx="13702.42" cy="4354.85" fx="13702.42" fy="4354.85" r="1.2" xlink:href="#Dégradé_sans_nom_12"/><radialGradient id="Dégradé_sans_nom_12-44" cx="13671.86" cy="4350.34" fx="13671.86" fy="4350.34" r="1.2" xlink:href="#Dégradé_sans_nom_12"/><radialGradient id="Dégradé_sans_nom_12-45" cx="13686.17" cy="4400.64" fx="13686.17" fy="4400.64" r="1.2" xlink:href="#Dégradé_sans_nom_12"/><radialGradient id="Dégradé_sans_nom_12-46" cx="13669.95" cy="4401.47" fx="13669.95" fy="4401.47" r="1.2" xlink:href="#Dégradé_sans_nom_12"/><radialGradient id="Dégradé_sans_nom_12-47" cx="13640.1" cy="4459.53" fx="13640.1" fy="4459.53" r="1.2" xlink:href="#Dégradé_sans_nom_12"/><radialGradient id="Dégradé_sans_nom_12-48" cx="13691.43" cy="4503.6" fx="13691.43" fy="4503.6" r="1.2" xlink:href="#Dégradé_sans_nom_12"/><radialGradient id="Dégradé_sans_nom_12-49" cx="13688.73" cy="4416.31" fx="13688.73" fy="4416.31" r="2.4" xlink:href="#Dégradé_sans_nom_12"/><radialGradient id="Dégradé_sans_nom_12-50" cx="13673.74" cy="4390.11" fx="13673.74" fy="4390.11" r="2.4" xlink:href="#Dégradé_sans_nom_12"/><radialGradient id="Dégradé_sans_nom_12-51" cx="13647.26" cy="4466.5" fx="13647.26" fy="4466.5" r="2.4" xlink:href="#Dégradé_sans_nom_12"/><radialGradient id="Dégradé_sans_nom_12-52" cx="13628.68" cy="4478.68" fx="13628.68" fy="4478.68" r="2.4" xlink:href="#Dégradé_sans_nom_12"/><radialGradient id="Dégradé_sans_nom_12-53" cx="13768.32" cy="4293.49" fx="13768.32" fy="4293.49" r="2.4" xlink:href="#Dégradé_sans_nom_12"/><radialGradient id="Dégradé_sans_nom_12-54" cx="13719.51" cy="4343.1" fx="13719.51" fy="4343.1" r="2.4" xlink:href="#Dégradé_sans_nom_12"/><radialGradient id="Dégradé_sans_nom_12-55" cx="13699.95" cy="4338.72" fx="13699.95" fy="4338.72" r="2.4" xlink:href="#Dégradé_sans_nom_12"/><radialGradient id="Dégradé_sans_nom_12-56" cx="13804.61" cy="4302.03" fx="13804.61" fy="4302.03" r="2.4" xlink:href="#Dégradé_sans_nom_12"/><radialGradient id="Dégradé_sans_nom_12-57" cx="13403.76" cy="4331.18" fx="13403.76" fy="4331.18" r="1.2" xlink:href="#Dégradé_sans_nom_12"/><radialGradient id="Dégradé_sans_nom_12-58" cx="13498.42" cy="4434" fx="13498.42" fy="4434" r="1.2" xlink:href="#Dégradé_sans_nom_12"/><radialGradient id="Dégradé_sans_nom_12-59" cx="13464.68" cy="4433.57" fx="13464.68" fy="4433.57" r="1.2" xlink:href="#Dégradé_sans_nom_12"/><radialGradient id="Dégradé_sans_nom_12-60" cx="13440.6" cy="4285.32" fx="13440.6" fy="4285.32" r="1.2" xlink:href="#Dégradé_sans_nom_12"/><radialGradient id="Dégradé_sans_nom_12-61" cx="13449.11" cy="4247.71" fx="13449.11" fy="4247.71" r="1.2" xlink:href="#Dégradé_sans_nom_12"/><radialGradient id="Dégradé_sans_nom_12-62" cx="13522.13" cy="4218.75" fx="13522.13" fy="4218.75" r="1.2" xlink:href="#Dégradé_sans_nom_12"/><radialGradient id="Dégradé_sans_nom_12-63" cx="13512.78" cy="4203.56" fx="13512.78" fy="4203.56" r="1.2" xlink:href="#Dégradé_sans_nom_12"/><radialGradient id="Dégradé_sans_nom_12-64" cx="13390.32" cy="4193.09" fx="13390.32" fy="4193.09" r="1.2" xlink:href="#Dégradé_sans_nom_12"/><radialGradient id="Dégradé_sans_nom_12-65" cx="13429.55" cy="4496.22" fx="13429.55" fy="4496.22" r="1.2" xlink:href="#Dégradé_sans_nom_12"/><radialGradient id="Dégradé_sans_nom_12-66" cx="13432.54" cy="4476.03" fx="13432.54" fy="4476.03" r="1.2" xlink:href="#Dégradé_sans_nom_12"/><radialGradient id="Dégradé_sans_nom_12-67" cx="13649.94" cy="4409.89" fx="13649.94" fy="4409.89" r="1.2" xlink:href="#Dégradé_sans_nom_12"/><radialGradient id="Dégradé_sans_nom_12-68" cx="13655.73" cy="4389.82" fx="13655.73" fy="4389.82" r="1.2" xlink:href="#Dégradé_sans_nom_12"/><radialGradient id="Dégradé_sans_nom_12-69" cx="13634.28" cy="4399.39" fx="13634.28" fy="4399.39" r="1.2" xlink:href="#Dégradé_sans_nom_12"/><radialGradient id="Dégradé_sans_nom_12-70" cx="13645.42" cy="4337.49" fx="13645.42" fy="4337.49" r="1.2" xlink:href="#Dégradé_sans_nom_12"/><radialGradient id="Dégradé_sans_nom_12-71" cx="13595.93" cy="4267.33" fx="13595.93" fy="4267.33" r="1.2" xlink:href="#Dégradé_sans_nom_12"/><radialGradient id="Dégradé_sans_nom_12-72" cx="13574.12" cy="4269.17" fx="13574.12" fy="4269.17" r="1.2" xlink:href="#Dégradé_sans_nom_12"/><radialGradient id="Dégradé_sans_nom_12-73" cx="13579.76" cy="4252.6" fx="13579.76" fy="4252.6" r="1.2" xlink:href="#Dégradé_sans_nom_12"/><radialGradient id="Dégradé_sans_nom_12-74" cx="13508.54" cy="4453.44" fx="13508.54" fy="4453.44" r="1.2" xlink:href="#Dégradé_sans_nom_12"/><radialGradient id="Dégradé_sans_nom_12-75" cx="13362.79" cy="4384.93" fx="13362.79" fy="4384.93" r="2.4" xlink:href="#Dégradé_sans_nom_12"/><radialGradient id="Dégradé_sans_nom_12-76" cx="13453.91" cy="4256.85" fx="13453.91" fy="4256.85" r="2.4" xlink:href="#Dégradé_sans_nom_12"/><radialGradient id="Dégradé_sans_nom_12-77" cx="13402.65" cy="4209.77" fx="13402.65" fy="4209.77" r="2.4" xlink:href="#Dégradé_sans_nom_12"/><radialGradient id="Dégradé_sans_nom_12-78" cx="13406.35" cy="4190.07" fx="13406.35" fy="4190.07" r="2.4" xlink:href="#Dégradé_sans_nom_12"/><radialGradient id="Dégradé_sans_nom_12-79" cx="13634.16" cy="4325.49" fx="13634.16" fy="4325.49" r="2.4" xlink:href="#Dégradé_sans_nom_12"/><radialGradient id="Dégradé_sans_nom_12-80" cx="13635.47" cy="4411.79" fx="13635.47" fy="4411.79" r="2.4" xlink:href="#Dégradé_sans_nom_12"/><radialGradient id="Dégradé_sans_nom_12-81" cx="13508.62" cy="4444.79" fx="13508.62" fy="4444.79" r="2.4" xlink:href="#Dégradé_sans_nom_12"/><radialGradient id="Dégradé_sans_nom_12-82" cx="13444.46" cy="4484.52" fx="13444.46" fy="4484.52" r="2.4" xlink:href="#Dégradé_sans_nom_12"/><radialGradient id="Dégradé_sans_nom_12-83" cx="13567.2" cy="4261.26" fx="13567.2" fy="4261.26" r="2.4" xlink:href="#Dégradé_sans_nom_12"/><radialGradient id="Dégradé_sans_nom_12-84" cx="13386.79" cy="4454.18" fx="13386.79" fy="4454.18" r="2.4" xlink:href="#Dégradé_sans_nom_12"/><radialGradient id="Dégradé_sans_nom_12-85" cx="13398.57" cy="4379.81" fx="13398.57" fy="4379.81" r="2.4" xlink:href="#Dégradé_sans_nom_12"/><radialGradient id="Dégradé_sans_nom_12-86" cx="13446.63" cy="4293.41" fx="13446.63" fy="4293.41" r="2.4" xlink:href="#Dégradé_sans_nom_12"/><radialGradient id="Dégradé_sans_nom_12-87" cx="1703.8" cy="10856.26" fx="1703.8" fy="10856.26" r="1.2" gradientTransform="translate(11165.98 -1386.85) rotate(90)" xlink:href="#Dégradé_sans_nom_12"/><radialGradient id="Dégradé_sans_nom_12-88" cx="1696.95" cy="10894.21" fx="1696.95" fy="10894.21" r="1.2" gradientTransform="translate(11165.98 -1386.85) rotate(90)" xlink:href="#Dégradé_sans_nom_12"/><radialGradient id="Dégradé_sans_nom_12-89" cx="1625.27" cy="10926.36" fx="1625.27" fy="10926.36" r="1.2" gradientTransform="translate(11165.98 -1386.85) rotate(90)" xlink:href="#Dégradé_sans_nom_12"/><radialGradient id="Dégradé_sans_nom_12-90" cx="1635.29" cy="10941.12" fx="1635.29" fy="10941.12" r="1.2" gradientTransform="translate(11165.98 -1386.85) rotate(90)" xlink:href="#Dégradé_sans_nom_12"/><radialGradient id="Dégradé_sans_nom_12-91" cx="1489.19" cy="10741.02" fx="1489.19" fy="10741.02" r="1.2" gradientTransform="translate(11165.98 -1386.85) rotate(90)" xlink:href="#Dégradé_sans_nom_12"/><radialGradient id="Dégradé_sans_nom_12-92" cx="1484.28" cy="10761.32" fx="1484.28" fy="10761.32" r="1.2" gradientTransform="translate(11165.98 -1386.85) rotate(90)" xlink:href="#Dégradé_sans_nom_12"/><radialGradient id="Dégradé_sans_nom_12-93" cx="1505.29" cy="10750.82" fx="1505.29" fy="10750.82" r="1.2" gradientTransform="translate(11165.98 -1386.85) rotate(90)" xlink:href="#Dégradé_sans_nom_12"/><radialGradient id="Dégradé_sans_nom_12-94" cx="1496.89" cy="10813.14" fx="1496.89" fy="10813.14" r="1.2" gradientTransform="translate(11165.98 -1386.85) rotate(90)" xlink:href="#Dégradé_sans_nom_12"/><radialGradient id="Dégradé_sans_nom_12-95" cx="1549.41" cy="10881.07" fx="1549.41" fy="10881.07" r="1.2" gradientTransform="translate(11165.98 -1386.85) rotate(90)" xlink:href="#Dégradé_sans_nom_12"/><radialGradient id="Dégradé_sans_nom_12-96" cx="1571.12" cy="10878.27" fx="1571.12" fy="10878.27" r="1.2" gradientTransform="translate(11165.98 -1386.85) rotate(90)" xlink:href="#Dégradé_sans_nom_12"/><radialGradient id="Dégradé_sans_nom_12-97" cx="1566.22" cy="10895.07" fx="1566.22" fy="10895.07" r="1.2" gradientTransform="translate(11165.98 -1386.85) rotate(90)" xlink:href="#Dégradé_sans_nom_12"/><radialGradient id="Dégradé_sans_nom_12-98" cx="1691.75" cy="10885.3" fx="1691.75" fy="10885.3" r="2.4" gradientTransform="translate(11165.98 -1386.85) rotate(90)" xlink:href="#Dégradé_sans_nom_12"/><radialGradient id="Dégradé_sans_nom_12-99" cx="1508.66" cy="10824.64" fx="1508.66" fy="10824.64" r="2.4" gradientTransform="translate(11165.98 -1386.85) rotate(90)" xlink:href="#Dégradé_sans_nom_12"/><radialGradient id="Dégradé_sans_nom_12-100" cx="1503.56" cy="10738.48" fx="1503.56" fy="10738.48" r="2.4" gradientTransform="translate(11165.98 -1386.85) rotate(90)" xlink:href="#Dégradé_sans_nom_12"/><radialGradient id="Dégradé_sans_nom_12-101" cx="1578.38" cy="10885.86" fx="1578.38" fy="10885.86" r="2.4" gradientTransform="translate(11165.98 -1386.85) rotate(90)" xlink:href="#Dégradé_sans_nom_12"/><radialGradient id="Dégradé_sans_nom_12-102" cx="1697.42" cy="10848.45" fx="1697.42" fy="10848.45" r="2.4" gradientTransform="translate(11165.98 -1386.85) rotate(90)" xlink:href="#Dégradé_sans_nom_12"/><linearGradient id="Dégradé_sans_nom_17" x1="332.49" y1="237.62" x2="618.12" y2="237.62" gradientUnits="userSpaceOnUse"><stop offset="0" stop-color="#bd1622" stop-opacity=".7"/><stop offset="0" stop-color="#b71622" stop-opacity=".7"/><stop offset=".01" stop-color="#a61622" stop-opacity=".7"/><stop offset=".02" stop-color="#8d1622" stop-opacity=".7"/><stop offset=".23" stop-color="#92212c" stop-opacity=".67"/><stop offset=".44" stop-color="#a2424c" stop-opacity=".57"/><stop offset=".66" stop-color="#be7a81" stop-opacity=".42"/><stop offset=".88" stop-color="#e4c8cb" stop-opacity=".2"/><stop offset="1" stop-color="#fff" stop-opacity=".05"/></linearGradient><linearGradient id="Dégradé_sans_nom_95" x1="280.3" y1="410.47" x2="380.97" y2="410.47" gradientUnits="userSpaceOnUse"><stop offset="0" stop-color="#fff" stop-opacity=".9"/><stop offset=".18" stop-color="#f9f9e4" stop-opacity=".68"/><stop offset=".39" stop-color="#f4f4c7" stop-opacity=".44"/><stop offset=".59" stop-color="#efefb0" stop-opacity=".25"/><stop offset=".77" stop-color="#ecec9f" stop-opacity=".11"/><stop offset=".91" stop-color="#eaea95" stop-opacity=".03"/><stop offset="1" stop-color="#eaea92" stop-opacity="0"/></linearGradient></defs><g class="cls-39"><g id="Calque_1"><g><circle class="cls-7" cx="403.26" cy="322.46" r="266.84" transform="translate(-109.9 379.59) rotate(-45)"/><path class="cls-83" d="M648.69,349.86c-2.31,20.83-7.27,41.42-14.88,61.23-12.02,31.28-30.64,60.61-55.86,85.83-5.66,5.66-11.52,10.98-17.56,15.96-17.74,14.66-37.04,26.45-57.3,35.37-14.03,6.19-28.52,11-43.26,14.44-54.16,12.64-111.74,6.78-162.7-17.58-24.6-11.76-47.65-27.82-68.02-48.19-29.71-29.72-50.26-65.11-61.64-102.7-1.28-4.2-2.44-8.43-3.48-12.68-1.46-5.96-2.7-11.97-3.71-18-3.99-23.7-4.49-47.87-1.52-71.69,.35-2.84,.75-5.67,1.2-8.49,5.28-33.01,17.27-65.14,35.99-94.21,2.81-4.39,5.79-8.7,8.91-12.93,6-8.13,12.56-15.97,19.69-23.47,1.49-1.58,3.01-3.14,4.55-4.68,41.19-41.19,93.33-64.77,147.06-70.74,17.34-1.92,34.85-2.01,52.2-.26,54.62,5.49,107.75,29.16,149.59,71,55.14,55.13,78.72,129.88,70.74,201.79Z"/><circle class="cls-24" cx="370.43" cy="344.18" r="200.64"/><path class="cls-6" d="M560.39,512.88c-17.74,14.66-37.04,26.45-57.3,35.37-14.03,6.19-28.52,11-43.26,14.44-54.16,12.64-111.74,6.78-162.7-17.58-24.6-11.76-47.65-27.82-68.02-48.19-29.71-29.72-50.26-65.11-61.64-102.7-1.28-4.2-2.44-8.43-3.48-12.68-1.46-5.96-2.7-11.97-3.71-18-3.99-23.7-4.49-47.87-1.52-71.69,.35-2.84,.75-5.67,1.2-8.49,5.28-33.01,17.27-65.14,35.99-94.21,2.81-4.39,5.79-8.7,8.91-12.93,6-8.13,12.56-15.97,19.69-23.47,31.74,15.39,33.62,48.45,33.62,48.45,24.12-2.25,37.02,19.63,37.02,19.63,0,0,0,0,.02,0,38.95,2.06,40.21,39.5,40.21,39.5-.59,6.62-2.34,12.33-4.57,17.13-6.04,12.99-15.63,19.38-15.63,19.38,22.06,48.07-21.12,64.74-21.12,64.74,43.9,13.7,26.77,59.53,26.77,59.53,19.21,10.17,16.95,21.47,16.95,21.47,0,0,26.03-21.36,62.18-22.01,10.89-.19,22.69,1.49,34.98,6.19,38.72,14.83,52.81,54.89,57.6,75.5,1.78,7.65,2.28,12.62,2.28,12.62,0,0,24.85-25.98,48.58-16.94,8.36,3.18,13.63,8.89,16.95,14.95Z"/><path class="cls-6" d="M503.09,548.24c-14.03,6.19-28.52,11-43.26,14.44-54.16,12.64-111.74,6.78-162.7-17.58-24.6-11.76-47.65-27.82-68.02-48.19-29.71-29.72-50.26-65.11-61.64-102.7-1.28-4.2-2.44-8.43-3.48-12.68-1.46-5.96-2.7-11.97-3.71-18-3.99-23.7-4.49-47.87-1.52-71.69,.35-2.84,.75-5.67,1.2-8.49,5.28-33.01,17.27-65.14,35.99-94.21,3.54,6.86,6.57,14.81,8.84,24,48.9,2.91,32.32,41.87,32.32,41.87,0,0,0,0,.02,0,.68-.38,23.34-12.65,37.88,14.31,13.9,43.1-17.37,64.07-17.37,64.07,30.11,39.61-6.95,59.42-6.95,59.42,46.33,30.29,12.74,68.74,12.74,68.74,19.69,10.48,17.37,22.14,17.37,22.14,0,0,45.17-37.28,99.6-16.31,54.43,20.97,61.38,90.87,61.38,90.87,0,0,25.48-26.8,49.79-17.47,4.74,1.82,8.52,4.43,11.52,7.47Z"/><g><g><path class="cls-31" d="M290.92,507c-1.11-1.11-2.84,.61-1.72,1.72s2.84-.61,1.72-1.72h0Z"/><path class="cls-21" d="M349.06,498.05c-1.11-1.11-2.84,.61-1.72,1.72,1.11,1.11,2.84-.61,1.72-1.72h0Z"/><path class="cls-60" d="M380.74,476.06c-1.11-1.11-2.84,.61-1.72,1.72s2.84-.61,1.72-1.72h0Z"/><path class="cls-120" d="M454.15,504.01c-1.11-1.11-2.84,.61-1.72,1.72s2.84-.61,1.72-1.72h0Z"/><path class="cls-54" d="M457.51,486.5c-1.11-1.11-2.84,.61-1.72,1.72s2.84-.61,1.72-1.72h0Z"/><path class="cls-15" d="M374.26,396.08c-1.11-1.11-2.84,.61-1.72,1.72,1.11,1.11,2.84-.61,1.72-1.72h0Z"/><path class="cls-90" d="M397.54,375.78c-1.11-1.11-2.84,.61-1.72,1.72s2.84-.61,1.72-1.72h0Z"/><path class="cls-30" d="M350,353.99c-1.11-1.11-2.84,.61-1.72,1.72s2.84-.61,1.72-1.72h0Z"/><path class="cls-17" d="M359.9,341.11c-1.11-1.11-2.84,.61-1.72,1.72s2.84-.61,1.72-1.72h0Z"/><path class="cls-35" d="M335.15,280.71c-1.11-1.11-2.84,.61-1.72,1.72s2.84-.61,1.72-1.72h0Z"/><path class="cls-71" d="M183.63,407.47c-1.11-1.11-2.84,.61-1.72,1.72s2.84-.61,1.72-1.72h0Z"/><path class="cls-108" d="M268.3,291.1c-1.11-1.11-2.84,.61-1.72,1.72s2.84-.61,1.72-1.72h0Z"/></g><g class="cls-19"><path class="cls-74" d="M337.29,344.89c-2.22-2.22-5.67,1.23-3.45,3.45s5.67-1.23,3.45-3.45h0Z"/><path class="cls-121" d="M366.95,350.51c-2.22-2.22-5.67,1.23-3.45,3.45s5.67-1.23,3.45-3.45h0Z"/><path class="cls-1" d="M233.07,333.67c-2.22-2.22-5.67,1.23-3.45,3.45,2.22,2.22,5.67-1.23,3.45-3.45h0Z"/><path class="cls-58" d="M273.96,298.4c-2.22-2.22-5.67,1.23-3.45,3.45s5.67-1.23,3.45-3.45h0Z"/><path class="cls-26" d="M326.06,280.76c-2.22-2.22-5.67,1.23-3.45,3.45,2.22,2.22,5.67-1.23,3.45-3.45h0Z"/><path class="cls-18" d="M328.87,258.72c-2.22-2.22-5.67,1.23-3.45,3.45,2.22,2.22,5.67-1.23,3.45-3.45h0Z"/><path class="cls-118" d="M378.97,485.18c-2.22-2.22-5.67,1.23-3.45,3.45s5.67-1.23,3.45-3.45h0Z"/><path class="cls-36" d="M372.96,415.84c-2.22-2.22-5.67,1.23-3.45,3.45,2.22,2.22,5.67-1.23,3.45-3.45h0Z"/><path class="cls-77" d="M388.99,403.81c-2.22-2.22-5.67,1.23-3.45,3.45,2.22,2.22,5.67-1.23,3.45-3.45h0Z"/><path class="cls-4" d="M348.91,507.23c-2.22-2.22-5.67,1.23-3.45,3.45,2.22,2.22,5.67-1.23,3.45-3.45h0Z"/></g></g><g><g><path class="cls-43" d="M182.91,245.31c-1.11-1.11-2.84,.61-1.72,1.72,1.11,1.11,2.84-.61,1.72-1.72h0Z"/><path class="cls-41" d="M214.59,223.32c-1.11-1.11-2.84,.61-1.72,1.72s2.84-.61,1.72-1.72h0Z"/><path class="cls-11" d="M288,251.27c-1.11-1.11-2.84,.61-1.72,1.72s2.84-.61,1.72-1.72h0Z"/><path class="cls-37" d="M291.36,233.76c-1.11-1.11-2.84,.61-1.72,1.72,1.11,1.11,2.84-.61,1.72-1.72h0Z"/><path class="cls-98" d="M253.17,478.56c-1.11-1.11-2.84,.61-1.72,1.72,1.11,1.11,2.84-.61,1.72-1.72h0Z"/><path class="cls-56" d="M271,467.66c-1.11-1.11-2.84,.61-1.72,1.72,1.11,1.11,2.84-.61,1.72-1.72h0Z"/><path class="cls-84" d="M248.72,460.24c-1.11-1.11-2.84,.61-1.72,1.72,1.11,1.11,2.84-.61,1.72-1.72h0Z"/><path class="cls-79" d="M298.73,422.11c-1.11-1.11-2.84,.61-1.72,1.72s2.84-.61,1.72-1.72h0Z"/><path class="cls-109" d="M309.62,336.94c-1.11-1.11-2.84,.61-1.72,1.72s2.84-.61,1.72-1.72h0Z"/><path class="cls-113" d="M292.29,323.57c-1.11-1.11-2.84,.61-1.72,1.72,1.11,1.11,2.84-.61,1.72-1.72h0Z"/><path class="cls-65" d="M307.64,315.15c-1.11-1.11-2.84,.61-1.72,1.72s2.84-.61,1.72-1.72h0Z"/></g><g class="cls-19"><path class="cls-95" d="M212.82,232.44c-2.22-2.22-5.67,1.23-3.45,3.45,2.22,2.22,5.67-1.23,3.45-3.45h0Z"/><path class="cls-73" d="M299.4,404.79c-2.22-2.22-5.67,1.23-3.45,3.45,2.22,2.22,5.67-1.23,3.45-3.45h0Z"/><path class="cls-92" d="M242.08,469.32c-2.22-2.22-5.67,1.23-3.45,3.45s5.67-1.23,3.45-3.45h0Z"/><path class="cls-93" d="M293.38,312.2c-2.22-2.22-5.67,1.23-3.45,3.45,2.22,2.22,5.67-1.23,3.45-3.45h0Z"/><path class="cls-111" d="M182.76,254.48c-2.22-2.22-5.67,1.23-3.45,3.45s5.67-1.23,3.45-3.45h0Z"/></g></g><g><g><path class="cls-96" d="M227.67,197.77c1.19-1.02-.39-2.87-1.58-1.85-1.19,1.02,.39,2.87,1.58,1.85h0Z"/><path class="cls-86" d="M247.11,231.07c1.19-1.02-.39-2.87-1.58-1.85-1.19,1.02,.39,2.87,1.58,1.85h0Z"/><path class="cls-80" d="M213.49,302.07c1.19-1.02-.39-2.87-1.58-1.85-1.19,1.02,.39,2.87,1.58,1.85h0Z"/><path class="cls-115" d="M230.69,306.78c1.19-1.02-.39-2.87-1.58-1.85-1.19,1.02,.39,2.87,1.58,1.85h0Z"/><path class="cls-55" d="M327.36,230.88c1.19-1.02-.39-2.87-1.58-1.85-1.19,1.02,.39,2.87,1.58,1.85h0Z"/><path class="cls-97" d="M345.77,255.67c1.19-1.02-.39-2.87-1.58-1.85-1.19,1.02,.39,2.87,1.58,1.85h0Z"/><path class="cls-87" d="M371.22,209.99c1.19-1.02-.39-2.87-1.58-1.85-1.19,1.02,.39,2.87,1.58,1.85h0Z"/><path class="cls-16" d="M383.28,220.87c1.19-1.02-.39-2.87-1.58-1.85-1.19,1.02,.39,2.87,1.58,1.85h0Z"/><path class="cls-10" d="M445.44,200.93c1.19-1.02-.39-2.87-1.58-1.85-1.19,1.02,.39,2.87,1.58,1.85h0Z"/><path class="cls-107" d="M440.31,133.47c1.19-1.02-.39-2.87-1.58-1.85-1.19,1.02,.39,2.87,1.58,1.85h0Z"/></g><g class="cls-19"><path class="cls-32" d="M381.28,198.03c2.39-2.04-.78-5.75-3.17-3.71-2.39,2.04,.78,5.75,3.17,3.71h0Z"/><path class="cls-117" d="M373.36,227.16c2.39-2.04-.78-5.75-3.17-3.71-2.39,2.04,.78,5.75,3.17,3.71h0Z"/><path class="cls-106" d="M446.09,191.87c2.39-2.04-.78-5.75-3.17-3.71-2.39,2.04,.78,5.75,3.17,3.71h0Z"/><path class="cls-66" d="M467.85,196.39c2.39-2.04-.78-5.75-3.17-3.71-2.39,2.04,.78,5.75,3.17,3.71h0Z"/><path class="cls-112" d="M238.16,228.59c2.39-2.04-.78-5.75-3.17-3.71-2.39,2.04,.78,5.75,3.17,3.71h0Z"/><path class="cls-82" d="M307.76,228.03c2.39-2.04-.78-5.75-3.17-3.71-2.39,2.04,.78,5.75,3.17,3.71h0Z"/><path class="cls-42" d="M318.49,244.96c2.39-2.04-.78-5.75-3.17-3.71-2.39,2.04,.78,5.75,3.17,3.71h0Z"/><path class="cls-45" d="M218.54,196.9c2.39-2.04-.78-5.75-3.17-3.71-2.39,2.04,.78,5.75,3.17,3.71h0Z"/></g></g><g><g><path class="cls-40" d="M520.11,458.7c1.06,1.16,2.86-.49,1.8-1.65-1.06-1.16-2.86,.49-1.8,1.65h0Z"/><path class="cls-20" d="M525.88,319.06c1.06,1.16,2.86-.49,1.8-1.65-1.06-1.16-2.86,.49-1.8,1.65h0Z"/><path class="cls-116" d="M549.43,343.23c1.06,1.16,2.86-.49,1.8-1.65-1.06-1.16-2.86,.49-1.8,1.65h0Z"/><path class="cls-52" d="M461.63,465.08c1.06,1.16,2.86-.49,1.8-1.65-1.06-1.16-2.86,.49-1.8,1.65h0Z"/><path class="cls-69" d="M429.02,485.65c1.06,1.16,2.86-.49,1.8-1.65-1.06-1.16-2.86,.49-1.8,1.65h0Z"/><path class="cls-44" d="M356.9,454.5c1.06,1.16,2.86-.49,1.8-1.65-1.06-1.16-2.86,.49-1.8,1.65h0Z"/><path class="cls-33" d="M352.78,471.85c1.06,1.16,2.86-.49,1.8-1.65-1.06-1.16-2.86,.49-1.8,1.65h0Z"/><path class="cls-61" d="M431.97,565.85c1.06,1.16,2.86-.49,1.8-1.65-1.06-1.16-2.86,.49-1.8,1.65h0Z"/><path class="cls-13" d="M618.57,323.76c1.06,1.16,2.86-.49,1.8-1.65-1.06-1.16-2.86,.49-1.8,1.65h0Z"/><path class="cls-75" d="M602.18,335.92c1.06,1.16,2.86-.49,1.8-1.65-1.06-1.16-2.86,.49-1.8,1.65h0Z"/><path class="cls-105" d="M401.69,228.97c1.06,1.16,2.86-.49,1.8-1.65-1.06-1.16-2.86,.49-1.8,1.65h0Z"/><path class="cls-12" d="M383.4,239.07c1.06,1.16,2.86-.49,1.8-1.65-1.06-1.16-2.86,.49-1.8,1.65h0Z"/><path class="cls-76" d="M405.34,247.47c1.06,1.16,2.86-.49,1.8-1.65-1.06-1.16-2.86,.49-1.8,1.65h0Z"/><path class="cls-49" d="M353.7,283.36c1.06,1.16,2.86-.49,1.8-1.65-1.06-1.16-2.86,.49-1.8,1.65h0Z"/><path class="cls-99" d="M339.07,367.96c1.06,1.16,2.86-.49,1.8-1.65-1.06-1.16-2.86,.49-1.8,1.65h0Z"/><path class="cls-110" d="M355.8,382.08c1.06,1.16,2.86-.49,1.8-1.65-1.06-1.16-2.86,.49-1.8,1.65h0Z"/><path class="cls-48" d="M340.09,389.82c1.06,1.16,2.86-.49,1.8-1.65-1.06-1.16-2.86,.49-1.8,1.65h0Z"/><path class="cls-114" d="M532.47,298.16c1.06,1.16,2.86-.49,1.8-1.65-1.06-1.16-2.86,.49-1.8,1.65h0Z"/></g><g class="cls-19"><path class="cls-85" d="M586.19,450.48c2.12,2.31,5.72-.98,3.6-3.29-2.12-2.31-5.72,.98-3.6,3.29h0Z"/><path class="cls-47" d="M431.19,476.62c2.12,2.31,5.72-.98,3.6-3.29-2.12-2.31-5.72,.98-3.6,3.29h0Z"/><path class="cls-100" d="M434.14,546.16c2.12,2.31,5.72-.98,3.6-3.29-2.12-2.31-5.72,.98-3.6,3.29h0Z"/><path class="cls-119" d="M417.6,557.47c2.12,2.31,5.72-.98,3.6-3.29-2.12-2.31-5.72,.98-3.6,3.29h0Z"/><path class="cls-29" d="M352.27,300.63c2.12,2.31,5.72-.98,3.6-3.29-2.12-2.31-5.72,.98-3.6,3.29h0Z"/><path class="cls-64" d="M412.37,238.68c2.12,2.31,5.72-.98,3.6-3.29-2.12-2.31-5.72,.98-3.6,3.29h0Z"/><path class="cls-46" d="M525.39,305.04c2.12,2.31,5.72-.98,3.6-3.29-2.12-2.31-5.72,.98-3.6,3.29h0Z"/><path class="cls-91" d="M598.86,322.31c2.12,2.31,5.72-.98,3.6-3.29-2.12-2.31-5.72,.98-3.6,3.29h0Z"/><path class="cls-101" d="M354.2,393.4c2.12,2.31,5.72-.98,3.6-3.29-2.12-2.31-5.72,.98-3.6,3.29h0Z"/><path class="cls-78" d="M618.18,384.55c2.12,2.31,5.72-.98,3.6-3.29-2.12-2.31-5.72,.98-3.6,3.29h0Z"/><path class="cls-89" d="M557.26,428.81c2.12,2.31,5.72-.98,3.6-3.29-2.12-2.31-5.72,.98-3.6,3.29h0Z"/><path class="cls-53" d="M462.19,455.92c2.12,2.31,5.72-.98,3.6-3.29-2.12-2.31-5.72,.98-3.6,3.29h0Z"/></g></g><g><g><path class="cls-59" d="M308.47,316.95c0,1.57,2.44,1.57,2.44,0s-2.44-1.57-2.44,0h0Z"/><path class="cls-57" d="M270.53,310.1c0,1.57,2.44,1.57,2.44,0,0-1.57-2.44-1.57-2.44,0h0Z"/><path class="cls-67" d="M238.38,238.43c0,1.57,2.44,1.57,2.44,0s-2.44-1.57-2.44,0h0Z"/><path class="cls-38" d="M223.62,248.44c0,1.57,2.44,1.57,2.44,0,0-1.57-2.44-1.57-2.44,0h0Z"/><path class="cls-14" d="M423.72,102.34c0,1.57,2.44,1.57,2.44,0,0-1.57-2.44-1.57-2.44,0h0Z"/><path class="cls-68" d="M403.41,97.44c0,1.57,2.44,1.57,2.44,0,0-1.57-2.44-1.57-2.44,0h0Z"/><path class="cls-3" d="M413.92,118.45c0,1.57,2.44,1.57,2.44,0,0-1.57-2.44-1.57-2.44,0h0Z"/><path class="cls-51" d="M351.59,110.04c0,1.57,2.44,1.57,2.44,0s-2.44-1.57-2.44,0h0Z"/><path class="cls-9" d="M283.67,162.56c0,1.57,2.44,1.57,2.44,0,0-1.57-2.44-1.57-2.44,0h0Z"/><path class="cls-34" d="M286.47,184.27c0,1.57,2.44,1.57,2.44,0s-2.44-1.57-2.44,0h0Z"/><path class="cls-104" d="M269.66,179.37c0,1.57,2.44,1.57,2.44,0s-2.44-1.57-2.44,0h0Z"/></g><g class="cls-19"><path class="cls-63" d="M278.22,304.91c0,3.14,4.88,3.14,4.88,0s-4.88-3.14-4.88,0h0Z"/><path class="cls-88" d="M338.87,121.82c0,3.14,4.88,3.14,4.88,0s-4.88-3.14-4.88,0h0Z"/><path class="cls-72" d="M425.03,116.71c0,3.14,4.88,3.14,4.88,0,0-3.14-4.88-3.14-4.88,0h0Z"/><path class="cls-28" d="M277.65,191.54c0,3.14,4.88,3.14,4.88,0s-4.88-3.14-4.88,0h0Z"/><path class="cls-70" d="M315.07,310.57c0,3.14,4.88,3.14,4.88,0,0-3.14-4.88-3.14-4.88,0h0Z"/></g></g></g><g><g><path class="cls-5" d="M359.58,638.18c4.94,3.86,8.21,9.12,9.8,15.76h-12.61c-1.31-3.24-3.34-5.79-6.09-7.67-2.76-1.87-6.06-2.81-9.93-2.81-3.18,0-6.05,.8-8.61,2.39-2.56,1.59-4.55,3.86-5.96,6.82-1.42,2.95-2.13,6.42-2.13,10.39s.71,7.36,2.13,10.31c1.42,2.95,3.41,5.23,5.96,6.82,2.56,1.59,5.42,2.39,8.61,2.39,3.86,0,7.17-.94,9.93-2.81,2.75-1.87,4.78-4.43,6.09-7.67h12.61c-1.59,6.65-4.86,11.9-9.8,15.76-4.94,3.86-11.16,5.79-18.66,5.79-5.74,0-10.81-1.29-15.21-3.88-4.4-2.58-7.81-6.2-10.22-10.86-2.41-4.66-3.62-9.94-3.62-15.85s1.21-11.27,3.62-15.93c2.41-4.66,5.81-8.28,10.18-10.86,4.37-2.58,9.46-3.88,15.25-3.88,7.5,0,13.72,1.93,18.66,5.79Z"/><path class="cls-5" d="M392.98,670.81v22.32h-12.01v-60.15h21.9c7.1,0,12.45,1.7,16.06,5.11,3.61,3.41,5.41,8.04,5.41,13.89s-1.86,10.31-5.58,13.72c-3.72,3.41-9.02,5.11-15.89,5.11h-9.88Zm19.17-18.83c0-3.01-.82-5.31-2.47-6.9-1.65-1.59-4.35-2.39-8.09-2.39h-8.61v18.49h8.61c7.04,0,10.57-3.07,10.57-9.2Z"/><path class="cls-5" d="M456.68,657.78v9.97h-21.9v-9.97h21.9Z"/><path class="cls-5" d="M511.66,650.62c3.24,3.58,4.86,8.61,4.86,15.08v27.44h-11.93v-26.07c0-3.75-.97-6.66-2.9-8.73-1.93-2.07-4.57-3.11-7.92-3.11s-6.13,1.11-8.18,3.32c-2.04,2.21-3.07,5.4-3.07,9.54v25.05h-12.01v-47.2h12.01v9.46c1.25-3.18,3.31-5.67,6.18-7.46,2.87-1.79,6.18-2.68,9.93-2.68,5.45,0,9.8,1.79,13.04,5.37Z"/><path class="cls-5" d="M558.35,648.15c2.84,1.87,4.86,4.4,6.05,7.58v-9.8h11.93v47.37c0,4.37-.87,8.31-2.6,11.8-1.73,3.49-4.32,6.23-7.75,8.22-3.44,1.99-7.6,2.98-12.48,2.98-6.82,0-12.33-1.62-16.53-4.86-4.2-3.24-6.76-7.64-7.67-13.21h11.84c.68,2.39,2,4.24,3.96,5.58,1.96,1.33,4.47,2,7.54,2,3.52,0,6.36-1.04,8.52-3.11,2.16-2.07,3.24-5.21,3.24-9.42v-10.05c-1.19,3.18-3.21,5.72-6.05,7.62-2.84,1.9-6.25,2.86-10.22,2.86s-7.55-.97-10.74-2.9c-3.18-1.93-5.67-4.73-7.46-8.39-1.79-3.66-2.68-7.97-2.68-12.91s.89-9.24,2.68-12.91c1.79-3.66,4.27-6.46,7.46-8.39,3.18-1.93,6.76-2.9,10.74-2.9s7.38,.94,10.22,2.81Zm-15.51,11.33c-2.27,2.44-3.41,5.79-3.41,10.05s1.14,7.6,3.41,10.01c2.27,2.41,5.28,3.62,9.03,3.62s6.63-1.24,8.99-3.71c2.36-2.47,3.54-5.78,3.54-9.93s-1.18-7.54-3.54-10.01c-2.36-2.47-5.36-3.71-8.99-3.71s-6.76,1.22-9.03,3.66Z"/></g><g><polygon class="cls-5" points="308.66 693.41 294.07 693.41 280.19 672.35 267.87 693.41 253.81 693.41 269.81 667.39 291.46 667.39 308.66 693.41"/><polygon class="cls-5" points="307.71 631.75 292.03 657.24 269.71 657.24 252.86 631.75 267.45 631.75 281.33 652.8 293.65 631.75 307.71 631.75"/></g></g><g><path class="cls-5" d="M200.68,729.9v2.44h-5.23v16.29h-3.05v-16.29h-5.2v-2.44h13.47Z"/><path class="cls-5" d="M217.2,734.01v14.62h-3.05v-3.18c-.37,1.08-1.02,1.91-1.93,2.51-.92,.59-1.99,.89-3.21,.89-1.7,0-3.06-.55-4.09-1.64-1.02-1.1-1.54-2.66-1.54-4.7v-8.49h3.03v8.17c0,1.33,.34,2.35,1.01,3.06s1.59,1.07,2.76,1.07,2.16-.39,2.89-1.17,1.09-1.91,1.09-3.4v-7.75h3.05Z"/><path class="cls-5" d="M226.78,734.61c.92-.56,1.98-.84,3.18-.84v3.29h-.9c-1.33,0-2.39,.32-3.2,.97-.8,.65-1.21,1.71-1.21,3.2v7.4h-3.02v-14.62h3.02v2.86c.5-.95,1.2-1.71,2.12-2.27Z"/><path class="cls-5" d="M245.27,735.41c1.03,1.1,1.54,2.66,1.54,4.7v8.51h-3.02v-8.2c0-1.31-.34-2.32-1.01-3.04-.67-.72-1.59-1.07-2.76-1.07s-2.17,.38-2.89,1.15-1.09,1.9-1.09,3.38v7.77h-3.02v-14.62h3.02v3.21c.39-1.1,1.04-1.95,1.96-2.55,.92-.6,1.98-.9,3.18-.9,1.7,0,3.06,.55,4.08,1.64Z"/><path class="cls-5" d="M259.4,748.62l-5.25-6.5v6.5h-3.03v-19.63h3.03v11.25l5.2-6.23h3.63l-6.37,7.27,6.53,7.35h-3.74Z"/><path class="cls-5" d="M279.38,741.91h-11.25c.05,1.5,.47,2.62,1.25,3.34,.78,.73,1.74,1.09,2.89,1.09,1.01,0,1.86-.26,2.56-.77,.7-.51,1.13-1.19,1.29-2.04h3.23c-.19,1.03-.6,1.94-1.22,2.73-.62,.8-1.43,1.42-2.41,1.87-.99,.45-2.09,.68-3.32,.68-1.41,0-2.67-.3-3.75-.9-1.09-.6-1.94-1.47-2.56-2.6s-.93-2.47-.93-4.01,.31-2.85,.93-3.98,1.47-2,2.56-2.6c1.09-.6,2.34-.9,3.75-.9s2.68,.3,3.75,.89c1.07,.59,1.89,1.41,2.47,2.44,.57,1.03,.86,2.19,.86,3.46,0,.5-.04,.93-.11,1.3Zm-3.44-3.78c-.36-.65-.86-1.12-1.48-1.43-.63-.31-1.31-.46-2.06-.46-1.18,0-2.18,.36-2.97,1.09s-1.23,1.8-1.3,3.21h8.3c.04-.96-.13-1.75-.49-2.4Z"/><path class="cls-5" d="M284.92,734.01l4.38,10.74,4.06-10.74h3.37l-8.83,21.57h-3.37l3.16-7.29-6.15-14.27h3.4Z"/><path class="cls-5" d="M319.89,730.88c1.41,.81,2.51,1.95,3.32,3.41,.8,1.46,1.21,3.11,1.21,4.95s-.4,3.49-1.21,4.95-1.91,2.6-3.32,3.42-2.98,1.23-4.71,1.23-3.33-.41-4.73-1.23-2.52-1.96-3.33-3.42-1.22-3.11-1.22-4.95,.41-3.49,1.22-4.95c.81-1.46,1.92-2.59,3.33-3.41,1.41-.81,2.98-1.22,4.73-1.22s3.3,.41,4.71,1.22Zm-7.92,2.41c-.94,.55-1.67,1.34-2.19,2.36-.52,1.03-.78,2.22-.78,3.58s.26,2.56,.78,3.58c.52,1.03,1.25,1.81,2.19,2.36,.94,.55,2.01,.82,3.21,.82s2.24-.27,3.17-.82c.93-.55,1.65-1.33,2.18-2.36,.52-1.02,.78-2.22,.78-3.58s-.26-2.56-.78-3.58c-.52-1.02-1.25-1.81-2.18-2.36s-1.98-.82-3.17-.82-2.27,.27-3.21,.82Z"/><path class="cls-5" d="M340.06,734.72c1,.6,1.78,1.47,2.35,2.6,.57,1.13,.85,2.46,.85,3.98s-.28,2.87-.85,4.01c-.57,1.13-1.35,2-2.35,2.6-1,.6-2.14,.9-3.41,.9s-2.46-.33-3.39-.98c-.94-.65-1.59-1.52-1.96-2.6v10.35h-3.02v-21.57h3.02v3.4c.37-1.08,1.02-1.95,1.96-2.6,.94-.65,2.07-.98,3.39-.98s2.41,.3,3.41,.9Zm-6.62,2.35c-.67,.4-1.2,.96-1.59,1.7-.39,.73-.59,1.58-.59,2.53s.2,1.82,.59,2.55c.39,.73,.92,1.29,1.59,1.68s1.43,.6,2.28,.6c1.34,0,2.42-.43,3.24-1.29,.81-.86,1.22-2.04,1.22-3.54s-.41-2.66-1.22-3.53c-.82-.87-1.89-1.3-3.24-1.3-.85,0-1.61,.2-2.28,.6Z"/><path class="cls-5" d="M360.44,741.91h-11.25c.05,1.5,.47,2.62,1.25,3.34,.78,.73,1.74,1.09,2.89,1.09,1.01,0,1.86-.26,2.56-.77,.7-.51,1.13-1.19,1.29-2.04h3.23c-.19,1.03-.6,1.94-1.22,2.73-.62,.8-1.43,1.42-2.41,1.87-.99,.45-2.09,.68-3.32,.68-1.41,0-2.67-.3-3.75-.9-1.09-.6-1.94-1.47-2.56-2.6s-.93-2.47-.93-4.01,.31-2.85,.93-3.98,1.47-2,2.56-2.6c1.09-.6,2.34-.9,3.75-.9s2.68,.3,3.75,.89c1.07,.59,1.89,1.41,2.47,2.44,.57,1.03,.86,2.19,.86,3.46,0,.5-.04,.93-.11,1.3Zm-3.44-3.78c-.36-.65-.86-1.12-1.48-1.43-.63-.31-1.31-.46-2.06-.46-1.18,0-2.18,.36-2.97,1.09s-1.23,1.8-1.3,3.21h8.3c.04-.96-.13-1.75-.49-2.4Z"/><path class="cls-5" d="M376.52,735.41c1.02,1.1,1.54,2.66,1.54,4.7v8.51h-3.03v-8.2c0-1.31-.34-2.32-1.01-3.04-.67-.72-1.59-1.07-2.76-1.07s-2.17,.38-2.89,1.15c-.73,.77-1.09,1.9-1.09,3.38v7.77h-3.03v-14.62h3.03v3.21c.39-1.1,1.04-1.95,1.96-2.55s1.98-.9,3.18-.9c1.7,0,3.06,.55,4.09,1.64Z"/><path class="cls-5" d="M401.02,746.2c-.44,.79-1.11,1.42-2.02,1.9-.9,.48-2.01,.72-3.32,.72s-2.41-.23-3.42-.68c-1.01-.45-1.81-1.08-2.41-1.9-.6-.81-.95-1.75-1.04-2.81h3.24c.09,.81,.44,1.51,1.05,2.09,.61,.58,1.43,.88,2.46,.88,.92,0,1.63-.25,2.14-.74,.5-.49,.75-1.13,.75-1.91,0-.67-.18-1.22-.56-1.66-.37-.43-.83-.77-1.38-1.02-.55-.25-1.3-.53-2.25-.85-1.17-.37-2.12-.74-2.85-1.11-.73-.37-1.36-.91-1.87-1.62-.51-.71-.77-1.64-.77-2.79,0-1.01,.25-1.89,.74-2.65,.49-.76,1.2-1.35,2.12-1.76,.92-.42,1.98-.62,3.18-.62,1.91,0,3.43,.46,4.55,1.38,1.12,.92,1.77,2.12,1.92,3.61h-3.26c-.12-.71-.46-1.31-1-1.82-.54-.5-1.28-.76-2.21-.76-.85,0-1.53,.22-2.04,.65s-.77,1.06-.77,1.87c0,.64,.18,1.16,.53,1.58,.35,.42,.8,.74,1.34,.98,.54,.24,1.28,.52,2.21,.84,1.18,.37,2.15,.75,2.91,1.13,.75,.38,1.39,.93,1.91,1.66,.52,.73,.78,1.68,.78,2.86,0,.92-.22,1.77-.66,2.56Z"/><path class="cls-5" d="M416.01,734.72c1.13,.6,2.02,1.47,2.65,2.6,.64,1.13,.96,2.46,.96,3.98s-.32,2.87-.96,4.01c-.64,1.13-1.52,2-2.65,2.6-1.13,.6-2.41,.9-3.82,.9s-2.68-.3-3.81-.9c-1.12-.6-2.01-1.47-2.65-2.61-.65-1.14-.97-2.47-.97-3.99s.32-2.85,.97-3.98c.64-1.13,1.53-2,2.65-2.6,1.12-.6,2.39-.9,3.81-.9s2.69,.3,3.82,.9Zm-5.97,2.25c-.65,.35-1.18,.9-1.58,1.63-.4,.73-.6,1.63-.6,2.69s.2,1.98,.6,2.71c.4,.73,.92,1.26,1.58,1.62,.66,.35,1.37,.53,2.15,.53s1.5-.18,2.15-.53c.66-.35,1.18-.89,1.58-1.62s.6-1.63,.6-2.71-.2-1.96-.6-2.69c-.4-.73-.92-1.28-1.58-1.63-.65-.35-1.37-.53-2.15-.53s-1.49,.18-2.15,.53Z"/><path class="cls-5" d="M436.81,734.01v14.62h-3.05v-3.18c-.37,1.08-1.02,1.91-1.94,2.51-.92,.59-1.99,.89-3.21,.89-1.7,0-3.06-.55-4.08-1.64-1.03-1.1-1.54-2.66-1.54-4.7v-8.49h3.02v8.17c0,1.33,.34,2.35,1.01,3.06,.67,.72,1.59,1.07,2.76,1.07s2.17-.39,2.89-1.17,1.09-1.91,1.09-3.4v-7.75h3.05Z"/><path class="cls-5" d="M446.38,734.61c.92-.56,1.98-.84,3.18-.84v3.29h-.9c-1.33,0-2.39,.32-3.2,.97s-1.21,1.71-1.21,3.2v7.4h-3.02v-14.62h3.02v2.86c.5-.95,1.2-1.71,2.12-2.27Z"/><path class="cls-5" d="M463.81,735.32c1.24,1,2.01,2.36,2.31,4.07h-3.21c-.18-.92-.61-1.64-1.29-2.16-.68-.52-1.53-.78-2.56-.78-1.17,0-2.14,.41-2.92,1.23-.78,.82-1.17,2.03-1.17,3.62s.39,2.8,1.17,3.63c.78,.83,1.75,1.25,2.92,1.25,1.03,0,1.88-.26,2.56-.8,.68-.53,1.11-1.26,1.29-2.18h3.21c-.3,1.72-1.07,3.08-2.31,4.09-1.24,1.01-2.8,1.51-4.69,1.51-1.41,0-2.67-.3-3.75-.9-1.09-.6-1.94-1.47-2.56-2.6s-.93-2.47-.93-4.01,.31-2.85,.93-3.98,1.47-2,2.56-2.6c1.09-.6,2.34-.9,3.75-.9,1.89,0,3.46,.5,4.69,1.5Z"/><path class="cls-5" d="M483.31,741.91h-11.25c.05,1.5,.47,2.62,1.25,3.34,.78,.73,1.74,1.09,2.89,1.09,1.01,0,1.86-.26,2.56-.77,.7-.51,1.13-1.19,1.29-2.04h3.23c-.19,1.03-.6,1.94-1.22,2.73-.62,.8-1.43,1.42-2.41,1.87-.99,.45-2.09,.68-3.32,.68-1.41,0-2.67-.3-3.75-.9-1.09-.6-1.94-1.47-2.56-2.6s-.93-2.47-.93-4.01,.31-2.85,.93-3.98,1.47-2,2.56-2.6c1.09-.6,2.34-.9,3.75-.9s2.68,.3,3.75,.89c1.07,.59,1.89,1.41,2.47,2.44,.57,1.03,.86,2.19,.86,3.46,0,.5-.04,.93-.11,1.3Zm-3.44-3.78c-.36-.65-.86-1.12-1.48-1.43-.63-.31-1.31-.46-2.06-.46-1.18,0-2.18,.36-2.97,1.09-.8,.73-1.23,1.8-1.3,3.21h8.3c.04-.96-.13-1.75-.49-2.4Z"/><path class="cls-5" d="M509.01,729.9v18.73h-3.05v-8.41h-8.81v8.41h-3.03v-18.73h3.03v7.85h8.81v-7.85h3.05Z"/><path class="cls-5" d="M515.19,734.01l4.38,10.74,4.06-10.74h3.37l-8.83,21.57h-3.37l3.16-7.29-6.15-14.27h3.4Z"/><path class="cls-5" d="M541.57,734.72c1,.6,1.78,1.47,2.35,2.6s.85,2.46,.85,3.98-.28,2.87-.85,4.01-1.35,2-2.35,2.6c-1,.6-2.14,.9-3.41,.9s-2.46-.33-3.4-.98c-.94-.65-1.59-1.52-1.96-2.6v10.35h-3.03v-21.57h3.03v3.4c.37-1.08,1.02-1.95,1.96-2.6,.94-.65,2.07-.98,3.4-.98s2.41,.3,3.41,.9Zm-6.62,2.35c-.67,.4-1.2,.96-1.59,1.7-.39,.73-.58,1.58-.58,2.53s.19,1.82,.58,2.55,.92,1.29,1.59,1.68c.67,.4,1.43,.6,2.28,.6,1.34,0,2.42-.43,3.24-1.29s1.22-2.04,1.22-3.54-.41-2.66-1.22-3.53c-.81-.87-1.89-1.3-3.24-1.3-.85,0-1.61,.2-2.28,.6Z"/><path class="cls-5" d="M561.96,741.91h-11.25c.05,1.5,.47,2.62,1.25,3.34,.78,.73,1.74,1.09,2.89,1.09,1.01,0,1.86-.26,2.56-.77,.7-.51,1.13-1.19,1.29-2.04h3.24c-.2,1.03-.6,1.94-1.22,2.73-.62,.8-1.42,1.42-2.41,1.87-.99,.45-2.09,.68-3.32,.68-1.41,0-2.66-.3-3.75-.9-1.09-.6-1.94-1.47-2.56-2.6-.62-1.13-.93-2.47-.93-4.01s.31-2.85,.93-3.98c.62-1.13,1.47-2,2.56-2.6s2.34-.9,3.75-.9,2.69,.3,3.76,.89c1.07,.59,1.89,1.41,2.47,2.44,.57,1.03,.86,2.19,.86,3.46,0,.5-.04,.93-.11,1.3Zm-3.44-3.78c-.36-.65-.86-1.12-1.49-1.43-.63-.31-1.31-.46-2.06-.46-1.18,0-2.17,.36-2.97,1.09-.8,.73-1.23,1.8-1.3,3.21h8.3c.04-.96-.13-1.75-.49-2.4Z"/><path class="cls-5" d="M570.92,734.61c.92-.56,1.98-.84,3.18-.84v3.29h-.9c-1.33,0-2.39,.32-3.2,.97-.8,.65-1.21,1.71-1.21,3.2v7.4h-3.02v-14.62h3.02v2.86c.5-.95,1.2-1.71,2.12-2.27Z"/><path class="cls-5" d="M583.15,745.49l4.14-11.49h3.24l-5.57,14.62h-3.66l-5.57-14.62h3.24l4.19,11.49Z"/><path class="cls-5" d="M593.66,728.49c.35-.34,.82-.5,1.41-.5s1.06,.17,1.42,.5,.54,.76,.54,1.27-.18,.93-.54,1.25c-.36,.32-.84,.48-1.42,.48s-1.05-.16-1.41-.48c-.35-.32-.53-.73-.53-1.25s.18-.94,.53-1.27Zm2.92,5.52v14.62h-3.02v-14.62h3.02Z"/><path class="cls-5" d="M609.96,735.14c1.03,.88,1.67,2.05,1.9,3.51h-2.87c-.12-.8-.46-1.44-1.02-1.92-.56-.49-1.3-.73-2.22-.73-.76,0-1.35,.18-1.76,.54-.41,.36-.62,.85-.62,1.47,0,.46,.15,.83,.45,1.11,.3,.28,.68,.5,1.13,.66s1.09,.34,1.92,.53c1.1,.25,1.98,.5,2.67,.77,.68,.27,1.26,.69,1.75,1.26s.73,1.36,.73,2.35c0,1.22-.47,2.21-1.39,2.97s-2.18,1.14-3.75,1.14c-1.82,0-3.29-.42-4.42-1.27-1.12-.85-1.8-2.03-2.03-3.55h2.95c.09,.8,.44,1.44,1.06,1.94,.62,.49,1.43,.74,2.44,.74,.73,0,1.3-.19,1.71-.57,.41-.38,.62-.86,.62-1.45,0-.51-.16-.92-.48-1.22-.32-.3-.72-.53-1.19-.7s-1.13-.34-1.96-.52c-1.06-.25-1.92-.49-2.59-.74-.66-.25-1.23-.65-1.7-1.21-.47-.56-.7-1.31-.7-2.27,0-1.24,.46-2.24,1.39-3.01,.93-.77,2.22-1.15,3.86-1.15s3.09,.44,4.12,1.31Z"/><path class="cls-5" d="M626.34,734.72c1.13,.6,2.02,1.47,2.65,2.6,.64,1.13,.96,2.46,.96,3.98s-.32,2.87-.96,4.01c-.64,1.13-1.52,2-2.65,2.6-1.13,.6-2.41,.9-3.82,.9s-2.69-.3-3.81-.9c-1.12-.6-2.01-1.47-2.65-2.61-.64-1.14-.97-2.47-.97-3.99s.32-2.85,.97-3.98c.65-1.13,1.53-2,2.65-2.6,1.12-.6,2.39-.9,3.81-.9s2.69,.3,3.82,.9Zm-5.97,2.25c-.66,.35-1.18,.9-1.58,1.63-.4,.73-.6,1.63-.6,2.69s.2,1.98,.6,2.71c.4,.73,.92,1.26,1.58,1.62,.65,.35,1.37,.53,2.15,.53s1.49-.18,2.15-.53c.65-.35,1.18-.89,1.58-1.62,.4-.73,.6-1.63,.6-2.71s-.2-1.96-.6-2.69c-.4-.73-.92-1.28-1.58-1.63-.66-.35-1.37-.53-2.15-.53s-1.5,.18-2.15,.53Z"/><path class="cls-5" d="M638.8,734.61c.92-.56,1.98-.84,3.18-.84v3.29h-.9c-1.33,0-2.39,.32-3.2,.97-.81,.65-1.21,1.71-1.21,3.2v7.4h-3.03v-14.62h3.03v2.86c.49-.95,1.2-1.71,2.12-2.27Z"/></g><g><path class="cls-81" d="M477.94,375.71s0,0,0,0c-.24,.61-.49,1.22-.72,1.82,.24-.61,.48-1.22,.72-1.83Z"/><path class="cls-81" d="M531.82,386.61c-8.28,5.35-17.28,9.79-25.83,13.34-13.33-6.6-23.42-17.28-28.05-24.23,3.73-9.41,8.58-19.51,14.62-28.69,.33-.48,1.62-2.38,2.26-3.32,.02-.03,.03-.03,.03-.03,3.39-5.73-4.91-12.55-8.52-9.98-.1,.07-.19,.13-.26,.16,11.26-8.92,22.9-18.88,34.42-29.81-3.1,3.57-6.22,8.55-3.75,12.16,.74,1.1,1.51,1.81,2.33,2.22,12.57-8.12,25.97-8.94,38.52,3.73,22.1,22.28,2.14,46.4-25.77,64.45Z"/><path class="cls-62" d="M380.77,394.8c1.4,9.95-1.3,20.04-7.49,27.95-24.77,31.22-92.94,44.99-92.94,44.99,0,0-2.08-69.51,22.69-100.73,6.3-7.82,15.51-12.75,25.52-13.65l52.22,41.43Z"/><path class="cls-8" d="M369.88,386.16c.82,5.81-.75,11.7-4.36,16.32-14.46,18.22-54.21,26.24-54.21,26.24,0,0-1.23-40.53,13.23-58.76,3.68-4.57,9.06-7.44,14.9-7.96l30.44,24.15Z"/><path class="cls-81" d="M408.57,385.94c-2.78,1.53-4.37,2.38-4.52,2.45l-71.56-56.78c.03-.16,.5-1.91,1.35-4.96,3.46-12.49,13.82-46.95,32.96-87.37l.02-.03c6.13-13,13.19-26.6,21.21-40.3l.04-.06c14.89-25.43,33.13-51.15,55.14-73.73,32.89-33.79,64.74-51.71,91.41-60.61,4.16,16.28,15.09,32.97,31.53,46.01,16.44,13.05,35.15,19.88,51.95,20.28-2.6,28-12.81,63.08-38.24,102.79-54.61,85.3-149.45,140.37-171.31,152.31Z"/><path class="cls-103" d="M618.12,130.84c-16.81-.4-35.51-7.23-51.95-20.28-16.44-13.05-27.37-29.73-31.53-46.01,4.92-1.67,9.64-2.98,14.19-4.07,2.71,13.47,11.82,27.98,25.97,39.21,14.15,11.23,30.3,16.82,44.04,16.39,0,4.7-.2,9.6-.71,14.76Z"/><path class="cls-50" d="M618.83,116.07c-13.74,.43-29.88-5.16-44.04-16.39-14.15-11.23-23.27-25.74-25.97-39.21,30.71-7.26,52.15-2.54,56.42,.84,4.27,3.38,13.73,23.19,13.6,54.75Z"/><path class="cls-81" d="M404.19,212.82s-38.86,32.15-37.38,26.46l.02-.03c6.13-13,13.19-26.6,21.21-40.3l.04-.06c1.99-2.75,3.26-5.33,3.26-5.33l12.84,19.26Z"/><path class="cls-2" d="M366.92,238.95c1.68-4.09-6.84-10.63-11.66-6.02,0,0,0,.01-.02,.03-.76,.84-2.32,2.53-2.71,2.96-6.91,7.27-14.8,13.76-22.44,19.23-14.33-4.12-25.07-13.73-31.9-21.69,1.5-8.73,3.71-17.97,6.87-26.78,11.24-31.28,30.18-56.21,56.91-39.75,15.19,9.34,17.43,22.59,12.38,36.67,.59,.7,1.46,1.3,2.7,1.77,4.07,1.58,8.21-2.59,10.98-6.42-8.02,13.7-15.08,27.3-21.2,40.3,.01-.08,.05-.19,.09-.3Z"/><path class="cls-22" d="M604.76,60.76c-7.43,.72-37.46-1.06-62.11,9.48-4.15,1.77-8.47,3.76-12.94,6.01-56.49,28.32-125.08,100.72-179.42,263.2l-16.41-13.01c3.47-12.49,13.82-46.94,32.96-87.37l.02-.03c6.12-13,13.18-26.6,21.2-40.3,0,0,.02-.02,.05-.06,14.88-25.43,33.13-51.15,55.15-73.73,32.89-33.8,64.74-51.7,91.4-60.6,4.92-1.67,9.64-2.99,14.19-4.08,29.62-6.99,50.62-2.86,55.9,.49Z"/><path class="cls-102" d="M330.09,255.15c-17.01,12.17-32.82,19.29-33.96,18.6-1.14-.7-1.65-18.91,2.06-40.29,6.83,7.96,17.57,17.57,31.9,21.69Z"/><path class="cls-102" d="M505.99,399.95c-.37,.15-.74,.3-1.1,.45-.4,.17-.8,.33-1.2,.49-3.21,1.28-6.34,2.44-9.32,3.47-.74,.26-1.48,.51-2.21,.75-2.91,.97-5.65,1.81-8.17,2.52-.31,.09-.62,.18-.93,.26-.31,.09-.61,.17-.91,.25s-.6,.16-.89,.24c-2.64,.7-4.96,1.24-6.87,1.62-.22,.04-.43,.08-.63,.12-.94,.18-1.76,.32-2.47,.41-.18,.03-.35,.05-.52,.07-1.28,.15-2.05,.13-2.23-.05-.32-.33-.13-2.6,.59-6.23,.16-.78,.34-1.63,.54-2.54,.18-.75,.37-1.55,.57-2.39,.14-.55,.29-1.13,.44-1.72,.02-.08,.04-.16,.07-.25,.29-1.1,.61-2.26,.95-3.47,.19-.65,.38-1.31,.58-1.98,.3-1.01,.62-2.05,.96-3.11,.02-.05,.03-.1,.05-.15,.14-.45,.29-.9,.44-1.36,.28-.87,.58-1.75,.88-2.65,.18-.52,.37-1.04,.55-1.57,.17-.48,.34-.97,.52-1.45,.49-1.36,1-2.74,1.54-4.14,.24-.61,.48-1.22,.72-1.83,4.62,6.95,14.72,17.64,28.05,24.24Z"/><path class="cls-94" d="M579.88,233.63c25.43-39.71,35.64-74.8,38.24-102.79-16.81-.4-35.51-7.23-51.95-20.28-16.44-13.05-27.37-29.73-31.53-46.01-26.67,8.9-58.52,26.81-91.41,60.61-22.02,22.58-40.26,48.3-55.14,73.73-.02,.03-.04,.06-.04,.06-8.02,13.71-15.08,27.3-21.21,40.3l-.02,.03c-19.14,40.43-29.49,74.89-32.96,87.37-.85,3.05-1.32,4.8-1.35,4.96l71.56,56.78c.15-.07,1.74-.92,4.52-2.45,11.46-6.26,43.01-24.4,78.3-52.53,3.82-1.64,11.22,4.81,7.98,10.27,0,0,0,0-.02,.03-.64,.93-1.93,2.84-2.26,3.31-17.76,27.02-25.37,62.14-24.03,63.53,1.33,1.34,36.17-6.42,63.29-23.95,27.9-18.05,47.87-42.17,25.77-64.44-12.55-12.67-25.96-11.85-38.52-3.73-.82-.42-1.59-1.13-2.33-2.22-2.29-3.36,.24-7.89,3.09-11.38,21.65-20.47,42.84-44.33,60.04-71.2Z"/><circle class="cls-102" cx="520.82" cy="167.73" r="43.18"/><circle class="cls-103" cx="521.01" cy="167.64" r="36.34" transform="translate(191.02 604.29) rotate(-70.76)"/><path class="cls-102" d="M576.7,187.02c1.28-4.21-5.42-9.4-11.62-13.18,1.46-10.96-1.21-21.93-7.61-31.01-7.61-10.78-19.52-17.51-32.7-18.45-1.29-.09-2.58-.13-3.83-.11-6.68,.1-13.16,1.72-19.06,4.71-7.91-6.98-13.89-9.69-16.91-7.59-3.12,2.17-2.44,9.28,1.91,20.03-.86,1.12-1.67,2.29-2.42,3.5-.7,1.13-1.35,2.29-1.94,3.48-10.65-.6-17.09,.99-18.17,4.53-1.09,3.58,3.71,8.65,13.51,14.29-.03,1.29,0,2.59,.08,3.88,.54,7.97,3.28,15.66,7.91,22.23,5.08,7.2,11.98,12.56,20.1,15.66,1.04,.4,2.09,.75,3.17,1.07,5.51,1.64,11.2,2.19,16.92,1.62,2.97-.29,5.9-.91,8.74-1.81,0,0,0,0,.01,0,3.58,3.19,7.91,6.54,11.59,7.94,2.19,.83,4.15,.98,5.58-.02,3.57-2.48,1.63-10.53-.85-17.28,2.96-2.67,5.51-5.72,7.62-9.06,7.56,.41,16.64-.07,17.97-4.45Zm-13.44-5.19c.53-1.61,.97-3.27,1.31-4.93,5.79,3.65,8.74,6.87,8.13,8.91-.64,2.1-5.13,3.13-12.36,2.87,1.15-2.18,2.13-4.46,2.92-6.84Zm-14.49,20.66c2.23,6.38,2.53,10.68,.8,11.89-1.83,1.27-6.08-.78-11.7-5.61,3.18-1.27,6.22-2.89,9.04-4.88,.64-.45,1.25-.92,1.86-1.4Zm-59.8-63.59c-2.96-7.62-3.56-12.74-1.62-14.09,1.9-1.31,6.18,.74,11.84,5.64-.94,.57-1.87,1.17-2.78,1.81-2.75,1.94-5.23,4.17-7.44,6.63Zm-2.35,7.36c.45-.72,.92-1.42,1.41-2.1,4.23,9.71,10.75,21.11,18.61,32.51-10.14-3.55-19.32-7.51-26.15-11.26,.45-6.76,2.55-13.4,6.13-19.14Zm-18.27,7.88c.67-2.22,5.34-3.26,12.87-2.91-1.68,4.07-2.76,8.39-3.17,12.78-6.85-4.07-10.37-7.64-9.7-9.86Zm77.09,47.66c-3.01,2.12-6.28,3.81-9.7,5.06-6.34-5.86-13.75-14.38-21.13-24.33,.64,.2,1.28,.4,1.93,.6,14.4,4.37,28.22,7.23,39.28,8.14-2.76,4.07-6.25,7.63-10.38,10.54Zm-24.46-74.99c1.18-.02,2.39,.01,3.61,.1,4.11,.29,8.08,1.18,11.82,2.61,7.57,2.89,14.18,7.97,18.98,14.77,6.23,8.84,8.73,19.59,7.03,30.26-.35,2.19-.88,4.36-1.57,6.47-.86,2.62-1.98,5.13-3.31,7.48-10.63-.78-25.09-3.77-40.11-8.33-1.97-.6-3.94-1.22-5.87-1.85-.62-.87-1.24-1.75-1.86-2.64-8.45-12.16-15.53-24.47-19.65-34.14,2.27-2.71,4.89-5.12,7.83-7.2,6.81-4.8,14.8-7.41,23.1-7.54Zm4.8,82.33c-5.38,.54-10.75,.02-15.94-1.52-8.94-2.66-16.52-8.12-21.91-15.76-4.36-6.19-6.94-13.42-7.45-20.93-.05-.76-.07-1.53-.08-2.29,5.67,3.06,12.54,6.15,20.06,9.01,2.97,1.13,6.05,2.23,9.18,3.28,7.7,10.7,15.75,20.14,22.95,26.93-2.23,.61-4.5,1.06-6.8,1.29Z"/><path class="cls-22" d="M546.64,132.04c-3.03,.17-6.94,.64-11.34,1.71-15.54,3.76-37.19,15.03-48.04,47.93-1.02,3.07-1.94,6.34-2.75,9.79-5.75-9.07-8.2-20.27-6.03-31.66,4.52-23.79,27.48-39.41,51.28-34.88,6.27,1.19,11.98,3.66,16.89,7.1Z"/><polygon class="cls-27" points="329.76 323.4 409.67 386.81 388.83 402.82 318.91 347.34 329.76 323.4"/><path class="cls-23" d="M365.65,351.87s-5.18,10.53-10.56,24.18l-36.18-28.71,10.86-23.94,35.89,28.48Z"/></g><path class="cls-25" d="M380.6,396.6c1.4,9.95-1.13,17.8-7.32,25.72-24.77,31.22-92.94,44.99-92.94,44.99,0,0-2.08-69.51,22.69-100.73,6.95-7.6,13.8-12.05,23.81-12.94l53.76,42.97Z"/></g></g></svg>
