<?xml version="1.0" encoding="UTF-8"?>
<svg width="888px" height="132px" viewBox="0 0 888 132" version="1.1" xmlns="http://www.w3.org/2000/svg" xmlns:xlink="http://www.w3.org/1999/xlink">
    <!-- Generator: sketchtool 50.2 (55047) - http://www.bohemiancoding.com/sketch -->
    <title>18647B43-7861-4E7A-B322-A449A4F852B7@3x</title>
    <desc>Created with sketchtool.</desc>
    <defs></defs>
    <g id="Page-1" stroke="none" stroke-width="1" fill="none" fill-rule="evenodd" opacity="0.100000001">
        <g id="Traefik---Bandeau-top" transform="translate(-250.000000, -3098.000000)" fill="#FFFFFF">
            <g id="Group-15" transform="translate(0.000000, 3098.000000)">
                <g id="logo-github" transform="translate(243.000000, -62.000000)">
                    <g id="Group-17">
                        <g id="community_bg">
                            <path d="M341.554152,48.6169802 C308.101095,48.6169802 281.187733,75.530342 281.187733,108.983399 C281.187733,135.645234 298.543079,158.282642 322.43812,166.331497 C325.456441,166.834551 326.462548,165.073864 326.462548,163.313176 C326.462548,161.804016 326.462548,158.031115 326.462548,153.00058 C309.610256,156.773481 306.088881,144.951724 306.088881,144.951724 C303.322087,137.908975 299.297659,136.148288 299.297659,136.148288 C293.764071,132.375387 299.800712,132.375387 299.800712,132.375387 C305.837354,132.87844 309.107202,138.663555 309.107202,138.663555 C314.389264,147.970045 323.1927,145.203251 326.714074,143.69409 C327.217128,139.669662 328.726288,137.154395 330.486975,135.645234 C317.156058,134.136074 303.07056,128.854012 303.07056,105.713552 C303.07056,99.1738562 305.334301,93.6402678 309.358729,89.6158398 C308.855675,88.1066793 306.591935,82.0700374 309.861782,73.5181281 C309.861782,73.5181281 314.892317,72.0089676 326.462548,79.8062967 C331.241556,78.548663 336.523617,77.7940827 341.554152,77.7940827 C346.584687,77.7940827 351.866749,78.548663 356.645757,79.8062967 C368.215987,72.0089676 373.246522,73.5181281 373.246522,73.5181281 C376.51637,81.8185107 374.504156,87.8551526 373.749576,89.6158398 C377.522477,93.8917945 380.037744,99.1738562 380.037744,105.713552 C380.037744,128.854012 365.952247,133.884547 352.369802,135.393708 C354.633543,137.154395 356.39423,140.927296 356.39423,146.460884 C356.39423,154.50974 356.39423,161.049436 356.39423,163.06165 C356.39423,164.57081 357.400337,166.583024 360.670185,166.079971 C384.565226,158.282642 401.920571,135.645234 401.920571,108.983399 C401.920571,75.530342 375.00721,48.6169802 341.554152,48.6169802 Z" id="Shape" transform="translate(341.554152, 107.517859) rotate(-15.000000) translate(-341.554152, -107.517859) "></path>
                            <path d="M174.58809,64.5734928 C168.847709,67.1247733 162.788417,68.7193236 156.410216,69.6760537 C162.788417,65.849133 167.890978,59.7898419 170.123349,52.4549106 C164.064058,55.9629212 157.366946,58.5142017 150.032015,60.108752 C144.291634,54.0494609 135.999973,50.2225402 127.070491,50.2225402 C109.849348,50.2225402 95.8173053,64.2545827 95.8173053,81.4757259 C95.8173053,84.0270063 96.1362153,86.2593767 96.7740354,88.4917472 C70.9423208,87.2161069 47.6618865,74.7786147 32.0352937,55.6440112 C29.4840132,60.4276621 27.8894629,65.530223 27.8894629,71.270604 C27.8894629,82.113546 33.3109339,91.6808477 41.9215055,97.4212288 C36.8189446,97.1023187 32.0352937,95.8266785 27.5705529,93.5943081 C27.5705529,93.5943081 27.5705529,93.9132181 27.5705529,93.9132181 C27.5705529,109.220901 38.4134948,121.977303 52.7644474,124.847494 C50.213167,125.485314 47.3429765,125.804224 44.4727859,125.804224 C42.5593256,125.804224 40.3269552,125.485314 38.4134948,125.166404 C42.5593256,137.603896 54.0400877,146.852288 67.7532202,146.852288 C56.9102782,155.143949 43.5160558,160.24651 28.8461931,160.24651 C26.2949126,160.24651 23.7436322,160.24651 21.5112618,159.9276 C35.5433043,168.857082 51.8077173,173.959643 69.6666805,173.959643 C127.389401,173.959643 158.961497,126.123134 158.961497,84.6648265 C158.961497,83.3891862 158.961497,81.7946359 158.961497,80.5189957 C165.020788,76.373165 170.442259,70.951694 174.58809,64.5734928 Z" id="Shape" fill-rule="nonzero" transform="translate(98.049676, 112.091091) rotate(34.000000) translate(-98.049676, -112.091091) "></path>
                            <path d="M625.001598,84.5004501 C628.15774,94.2140527 631.524465,104.575763 634.687082,114.309294 L648.955885,109.671542 C656.395328,107.254312 664.385706,111.325672 666.802936,118.765082 C669.220166,126.204492 665.148873,134.194903 657.709397,136.612133 C657.709397,136.612133 652.123971,138.426949 643.440163,141.248491 C646.330343,150.143546 648.204262,155.91087 648.224816,155.974123 C650.623927,163.357784 646.041051,171.34157 638.523963,173.505295 C631.317057,175.579714 623.809542,171.674178 621.29519,164.72409 L616.509109,149.998928 C606.793213,153.155814 596.428427,156.523539 586.692109,159.687062 C589.582294,168.582134 591.456212,174.34946 591.476765,174.412721 C593.875843,181.796381 589.293,189.780134 581.775912,191.943892 C574.569007,194.018345 567.061492,190.112775 564.547139,183.162688 L559.761049,168.4375 C550.86056,171.329444 545.089134,173.204695 545.025851,173.225256 C537.64219,175.624334 529.658404,171.041491 527.49468,163.524403 C525.42026,156.317497 529.325796,148.809982 536.275884,146.295629 L551.007994,141.50729 L541.316962,111.691244 C532.41961,114.582169 526.650556,116.456648 526.587287,116.477205 C519.203626,118.876283 511.21984,114.29344 509.056115,106.776352 C506.981696,99.5694461 510.887232,92.0619311 517.837319,89.5475785 L532.563906,84.7610344 L527.923052,70.4826867 C525.505822,63.0432105 529.577182,55.0528325 537.016592,52.6356023 C544.456002,50.2183721 552.446413,54.2896658 554.863643,61.729142 C554.863643,61.729142 556.679427,67.3175498 559.50226,76.0053316 L589.310172,66.3169438 L584.671103,52.0440893 C582.253873,44.6046462 586.325233,36.6142682 593.764643,34.197038 C601.204053,31.7798078 609.194464,35.8511015 611.611694,43.2905777 C611.611694,43.2905777 613.426709,48.8766172 616.248516,57.561244 L630.517321,52.9234917 C637.956797,50.5062615 645.947175,54.5775882 648.364405,62.0170313 C650.781635,69.4564413 646.710342,77.4468524 639.270865,79.8640826 C639.270865,79.8640826 633.685426,81.6789025 625.001598,84.5004501 Z M598.065022,93.2526765 C588.350721,96.4090452 577.988018,99.7760924 568.253546,102.939015 C571.410285,112.654454 574.777686,123.018247 577.940824,132.753382 L607.754259,123.063199 L598.065023,93.2526773 Z" id="Combined-Shape" fill-rule="nonzero" transform="translate(588.000000, 112.999996) rotate(43.000000) translate(-588.000000, -112.999996) "></path>
                            <path d="M864.742338,163.47189 L864.742338,124.090828 L877.803898,124.090828 L877.803898,176.542329 L759.910601,176.542329 L759.910601,124.090828 L772.972161,124.090828 L772.972161,163.47189 L864.742338,163.47189 Z M787.390765,120.356417 L790.104855,107.455724 L854.225239,120.865655 L851.511148,133.766348 L787.390765,120.356417 Z M795.872297,89.8021443 L801.300478,77.7501812 L860.671203,105.588518 L855.243022,117.470735 L795.872297,89.8021443 Z M812.32647,60.6058394 L820.638371,50.5908279 L871.018672,92.5180796 L862.706771,102.533091 L812.32647,60.6058394 Z M844.895553,29.542329 L883.910601,82.1635761 L873.393501,89.9718902 L834.378453,37.3506431 L844.895553,29.542329 Z M786.03372,150.231705 L786.03372,137.161267 L851.511148,137.161267 L851.511148,150.231705 L786.03372,150.231705 Z" id="Combined-Shape" fill-rule="nonzero" transform="translate(821.910601, 103.042329) rotate(-15.000000) translate(-821.910601, -103.042329) "></path>
                        </g>
                    </g>
                </g>
            </g>
        </g>
    </g>
</svg>