<?xml version="1.0" encoding="UTF-8"?>
<svg width="46px" height="46px" viewBox="0 0 46 46" version="1.1" xmlns="http://www.w3.org/2000/svg" xmlns:xlink="http://www.w3.org/1999/xlink">
    <!-- Generator: sketchtool 50.2 (55047) - http://www.bohemiancoding.com/sketch -->
    <title>79B6277C-68FE-4BF7-B494-BA6AB5F90E94@3x</title>
    <desc>Created with sketchtool.</desc>
    <defs></defs>
    <g id="Page-1" stroke="none" stroke-width="1" fill="none" fill-rule="evenodd" stroke-linecap="square">
        <g id="Traefik---Bandeau-top" transform="translate(-955.000000, -641.000000)" stroke="#FFFFFF" stroke-width="2">
            <g id="Group-7" transform="translate(-10.000000, 611.000000)">
                <g id="Group-12" transform="translate(327.000000, 18.000000)">
                    <g id="Group-6-Copy-2" transform="translate(639.000000, 0.000000)">
                        <g id="community" transform="translate(0.000000, 13.000000)">
                            <path d="M18,41.672 C18,40.464 17.471,39.315 16.524,38.564 C15.078,37.416 12.57,36 9,36 C5.43,36 2.922,37.416 1.476,38.564 C0.529,39.315 0,40.464 0,41.672 L0,44 L18,44 L18,41.672 Z" id="Shape"></path>
                            <circle id="Oval" cx="9" cy="26" r="5"></circle>
                            <path d="M44,41.672 C44,40.464 43.471,39.315 42.524,38.564 C41.078,37.416 38.57,36 35,36 C31.43,36 28.922,37.416 27.476,38.564 C26.529,39.315 26,40.464 26,41.672 L26,44 L44,44 L44,41.672 Z" id="Shape"></path>
                            <circle id="Oval" cx="35" cy="26" r="5"></circle>
                            <path d="M29.562,1.443 C27.373,-0.755 23.719,-0.396 22,2.204 C20.279,-0.398 16.625,-0.752 14.438,1.443 C12.521,3.367 12.521,6.487 14.438,8.41 L21.999,16 L29.562,8.41 C31.479,6.486 31.479,3.367 29.562,1.443 Z" id="Shape"></path>
                        </g>
                    </g>
                </g>
            </g>
        </g>
    </g>
</svg>