<?xml version="1.0" encoding="UTF-8"?>
<svg width="46px" height="32px" viewBox="0 0 46 32" version="1.1" xmlns="http://www.w3.org/2000/svg" xmlns:xlink="http://www.w3.org/1999/xlink">
    <!-- Generator: sketchtool 50.2 (55047) - http://www.bohemiancoding.com/sketch -->
    <title>7DC14082-9207-4227-9D0F-01F055A26232@3x</title>
    <desc>Created with sketchtool.</desc>
    <defs/>
    <g id="Page-1" stroke="none" stroke-width="1" fill="none" fill-rule="evenodd">
        <g id="Traefik---Bandeau-top" transform="translate(-316.000000, -646.000000)" stroke="#FFFFFF" stroke-width="2">
            <g id="Group-7" transform="translate(-10.000000, 611.000000)">
                <g id="Group-12" transform="translate(327.000000, 18.000000)">
                    <g id="Group-6">
                        <g id="downloads" transform="translate(0.000000, 18.000000)">
                            <path d="M22,12 L22,28" id="Shape"/>
                            <polyline id="Shape" stroke-linecap="square" points="28 22 22 28 16 22"/>
                            <path d="M30,30 L36,30 C40.4,30 44,26.4 44,22 C44,17.6 40.4,14 36,14 C36,14 36,14 35.9,14 C35.4,6.2 28.9,0 21,0 C13,0 6.4,6.3 6,14.3 C2.5,15.2 0,18.3 0,22 C0,26.4 3.6,30 8,30 L14,30" id="Shape" stroke-linecap="square"/>
                        </g>
                    </g>
                </g>
            </g>
        </g>
    </g>
</svg>