<?xml version="1.0" encoding="UTF-8"?>
<svg width="1440px" height="486px" viewBox="0 0 1440 486" version="1.1" xmlns="http://www.w3.org/2000/svg" xmlns:xlink="http://www.w3.org/1999/xlink">
    <!-- Generator: sketchtool 50.2 (55047) - http://www.bohemiancoding.com/sketch -->
    <title>6BCC23CB-946C-4844-A0D6-99020C1EB245@3x</title>
    <desc>Created with sketchtool.</desc>
    <defs>
        <rect id="path-1" x="0" y="0" width="1445" height="486"></rect>
    </defs>
    <g id="Page-1" stroke="none" stroke-width="1" fill="none" fill-rule="evenodd" opacity="0.129999995">
        <g id="Traefik---Bandeau-top" transform="translate(0.000000, -125.000000)">
            <g id="header_bg" transform="translate(-5.000000, 125.000000)">
                <mask id="mask-2" fill="white">
                    <use xlink:href="#path-1"></use>
                </mask>
                <use id="Rectangle-12" fill="#FFFFFF" xlink:href="#path-1"></use>
                <path d="M166.975071,331.313225 L167.129848,331.162543 L167.425363,330.796843 L167.469145,330.832223 L167.509478,330.792957 L167.837457,331.129848 L168.203157,331.425363 L168.167777,331.469145 L351.858261,520.151217 L352.207043,520.509478 L351.490522,521.207043 L351.141739,520.848783 L167.534769,332.252493 L7.88889673,529.81426 L7.57463675,530.203157 L6.79684329,529.574637 L7.11110327,529.18574 L166.438459,332.018137 L166.092795,332.078086 L166.007354,331.58544 L119.107013,61.1600695 L118.731864,61.0699364 L-82.0769722,379.766547 L-82.3435195,380.189575 L-83.1895751,379.656481 L-82.9230278,379.233453 L118.033073,60.3031242 L118.130641,59.8970291 L118.268136,59.9300636 L118.343519,59.8104249 L118.485143,59.8996609 L-26.913032,-153.218212 L-27.1948202,-153.631244 L-26.3687562,-154.19482 L-26.086968,-153.781788 L119.731656,59.9523595 L119.907205,59.9219137 L119.974123,60.3077557 L120.000388,60.3462541 L424.109237,133.411367 L206.092954,-172.209632 L205.802586,-172.616678 L206.616678,-173.197414 L206.907046,-172.790368 L425.528403,133.67884 L626.846218,-110.848652 L617.064116,-128.25504 L616.819156,-128.690924 L617.690924,-129.180844 L617.935884,-128.74496 L627.527956,-111.676714 L630.11399,-114.817799 L630.431789,-115.203809 L631.203809,-114.568211 L630.88601,-114.182201 L628.053439,-110.741663 L889.227608,353.994726 L889.343965,353.810324 L889.76682,354.077144 L890.226863,354.367429 L1158.8454,162.779206 L713.316464,-13.0349036 L712.851368,-13.2184394 L713.218439,-14.1486321 L713.683536,-13.9650964 L1159.37608,161.913576 L1159.95717,161.324341 L1159.91473,161.103186 L1160.23608,161.041522 L1373.14399,-54.851084 L1373.49508,-55.2070897 L1374.20709,-54.5049217 L1373.85601,-54.148916 L1161.72562,160.955261 L1162.1974,161.616733 L1161.79034,161.907069 L1161.44243,162.155206 L1473.58501,216.007279 L1474.07773,216.092285 L1473.90771,217.077727 L1473.41499,216.992721 L1161.32571,163.149842 L1231.99104,531.405773 L1232.08527,531.896814 L1231.10319,532.085268 L1231.00896,531.594227 L1160.27622,162.98699 L891.140614,354.944003 L1160.76682,525.077144 L1161.18968,525.343965 L1160.65604,526.189676 L1160.23318,525.922856 L890.844633,355.939677 L890.736964,356.166219 L890.566067,356.084997 L671.809938,528.89235 L671.417589,529.202288 L670.797712,528.417589 L671.190062,528.10765 L889.162248,355.919576 L889.077302,355.768423 L888.802595,355.383267 L888.844182,355.353606 L888.777496,355.234945 L426,135.291232 L426,529.5 L426,530 L425,530 L425,529.5 L425,134.815963 L424.833781,134.736964 L424.880856,134.637915 L424.859071,134.61998 L120.16607,61.4145184 L166.975071,331.313225 Z M426.978418,134.649049 L887.928514,353.724255 L627.371701,-109.913602 L426.559286,134.000015 L426.616806,134.013835 L427.102971,134.130641 L426.978418,134.649049 Z" id="Combined-Shape" fill="#37ABC8" mask="url(#mask-2)"></path>
                <circle id="Oval-5" stroke="#37ABC8" fill="#FFFFFF" mask="url(#mask-2)" cx="119" cy="60" r="5"></circle>
                <circle id="Oval-5" stroke="#37ABC8" fill="#FFFFFF" mask="url(#mask-2)" cx="167" cy="332" r="5"></circle>
                <circle id="Oval-5" stroke="#37ABC8" fill="#FFFFFF" mask="url(#mask-2)" cx="889" cy="355" r="5"></circle>
                <circle id="Oval-5" stroke="#37ABC8" fill="#FFFFFF" mask="url(#mask-2)" cx="1160" cy="162" r="5"></circle>
            </g>
        </g>
    </g>
</svg>